<svg width="28" height="28" viewBox="0 0 28 28" fill="none" xmlns="http://www.w3.org/2000/svg">
<path d="M25.6666 25.6667H2.33325" stroke="#060F2F" strokeWidth="2" strokeLinecap="round"/>
<path d="M2.33325 12.8333L11.8135 5.24919C13.0918 4.22659 14.9081 4.22659 16.1864 5.24919L25.6666 12.8333" stroke="#060F2F" strokeWidth="2" strokeLinecap="round"/>
<path opacity="0.5" d="M18.0833 6.41667V4.08333C18.0833 3.76117 18.3445 3.5 18.6666 3.5H21.5833C21.9054 3.5 22.1666 3.76117 22.1666 4.08333V9.91667" stroke="#060F2F" strokeWidth="2" strokeLinecap="round"/>
<path d="M4.66675 25.6667V11.0833" stroke="#060F2F" strokeWidth="2" strokeLinecap="round"/>
<path d="M23.3333 25.6667V11.0833" stroke="#060F2F" strokeWidth="2" strokeLinecap="round"/>
<path opacity="0.5" d="M17.5 25.6667V19.8333C17.5 18.1834 17.5 17.3585 16.9875 16.8458C16.4749 16.3333 15.6499 16.3333 14 16.3333C12.3501 16.3333 11.5251 16.3333 11.0126 16.8458C10.5 17.3585 10.5 18.1834 10.5 19.8333V25.6667" stroke="#060F2F" strokeWidth="2"/>
<path opacity="0.5" d="M16.3334 11.0833C16.3334 12.372 15.2888 13.4167 14.0001 13.4167C12.7114 13.4167 11.6667 12.372 11.6667 11.0833C11.6667 9.79467 12.7114 8.75 14.0001 8.75C15.2888 8.75 16.3334 9.79467 16.3334 11.0833Z" stroke="#060F2F" strokeWidth="2"/>
</svg>
