<svg width="28" height="28" viewBox="0 0 28 28" fill="none" xmlns="http://www.w3.org/2000/svg">
<path opacity="0.7" d="M12.9989 23.3333C10.4003 23.3333 9.10091 23.3333 8.01625 22.7484C6.9316 22.1633 6.24295 21.0911 4.86563 18.9467L4.07136 17.71C2.91262 15.9059 2.33325 15.0038 2.33325 14C2.33325 12.9962 2.91262 12.0941 4.07136 10.29L4.86563 9.05335C6.24295 6.9089 6.9316 5.83668 8.01625 5.25167C9.10091 4.66667 10.4003 4.66667 12.9989 4.66667H16.0754C20.5967 4.66667 22.8574 4.66667 24.262 6.0335C25.6666 7.40035 25.6666 9.60022 25.6666 14C25.6666 18.3997 25.6666 20.5997 24.262 21.9665C22.8574 23.3333 20.5967 23.3333 16.0754 23.3333H12.9989Z" stroke="#060F2F" strokeWidth="2"/>
<path d="M18.0833 11.0834L12.25 16.9167M12.25 11.0833L18.0833 16.9167" stroke="#060F2F" strokeWidth="2" strokeLinecap="round"/>
</svg>
