<svg width="28" height="28" viewBox="0 0 28 28" fill="none" xmlns="http://www.w3.org/2000/svg">
<path d="M4.42669 14.0339C5.05339 10.9005 5.36673 9.33375 6.40212 8.32467C6.59348 8.13816 6.80051 7.96845 7.02092 7.81738C8.21346 7 9.81123 7 13.0068 7H14.9935C18.1891 7 19.7869 7 20.9794 7.81738C21.1998 7.96845 21.4068 8.13816 21.5982 8.32467C22.6335 9.33375 22.9469 10.9005 23.5736 14.0339C24.4734 18.5326 24.9232 20.7819 23.8876 22.3758C23.7001 22.6645 23.4812 22.9314 23.2351 23.1719C21.8752 24.5 19.5813 24.5 14.9935 24.5H13.0068C8.419 24.5 6.12513 24.5 4.76529 23.1719C4.51907 22.9314 4.3002 22.6645 4.1127 22.3758C3.07709 20.7819 3.52696 18.5326 4.42669 14.0339Z" stroke="#060F2F" strokeWidth="2"/>
<path opacity="0.7" d="M17.4999 11.6667C18.1443 11.6667 18.6666 11.1443 18.6666 10.5C18.6666 9.85566 18.1443 9.33333 17.4999 9.33333C16.8556 9.33333 16.3333 9.85566 16.3333 10.5C16.3333 11.1443 16.8556 11.6667 17.4999 11.6667Z" fill="#060F2F"/>
<path opacity="0.7" d="M10.4999 11.6667C11.1443 11.6667 11.6666 11.1443 11.6666 10.5C11.6666 9.85566 11.1443 9.33333 10.4999 9.33333C9.85559 9.33333 9.33325 9.85566 9.33325 10.5C9.33325 11.1443 9.85559 11.6667 10.4999 11.6667Z" fill="#060F2F"/>
<path opacity="0.7" d="M10.5 6.99999V5.83333C10.5 3.90034 12.0669 2.33333 14 2.33333C15.933 2.33333 17.5 3.90034 17.5 5.83333V6.99999" stroke="#060F2F" strokeWidth="2" strokeLinecap="round"/>
</svg>
