<svg width="28" height="28" viewBox="0 0 28 28" fill="none" xmlns="http://www.w3.org/2000/svg">
<path d="M21.874 11.3278V10.5058C21.874 5.99226 18.3486 2.33333 14 2.33333C9.65132 2.33333 6.12602 5.99226 6.12602 10.5058V11.3278C6.12602 12.3144 5.84467 13.2788 5.31743 14.0996L4.02542 16.1111C2.84529 17.9483 3.74623 20.4457 5.79875 21.0267C11.1682 22.5466 16.8318 22.5466 22.2012 21.0267C24.2538 20.4457 25.1547 17.9483 23.9745 16.1111L22.6826 14.0996C22.1553 13.2788 21.874 12.3144 21.874 11.3278Z" stroke="#060F2F" strokeWidth="2"/>
<path opacity="0.5" d="M8.75 22.1667C9.5142 24.2058 11.5762 25.6667 14 25.6667C16.4237 25.6667 18.4858 24.2058 19.25 22.1667" stroke="#060F2F" strokeWidth="2" strokeLinecap="round"/>
</svg>
