<svg width="28" height="28" viewBox="0 0 28 28" fill="none" xmlns="http://www.w3.org/2000/svg">
<path d="M2.33325 14C2.33325 9.60022 2.33325 7.40035 3.70008 6.0335C5.06693 4.66667 7.26681 4.66667 11.6666 4.66667H16.3333C20.733 4.66667 22.933 4.66667 24.2997 6.0335C25.6666 7.40035 25.6666 9.60022 25.6666 14V16.3333C25.6666 20.7331 25.6666 22.9331 24.2997 24.2998C22.933 25.6667 20.733 25.6667 16.3333 25.6667H11.6666C7.26681 25.6667 5.06693 25.6667 3.70008 24.2998C2.33325 22.9331 2.33325 20.7331 2.33325 16.3333V14Z" stroke="#060F2F" strokeWidth="2"/>
<path opacity="0.5" d="M8.16675 4.66667V2.91667" stroke="#060F2F" strokeWidth="2" strokeLinecap="round"/>
<path opacity="0.5" d="M19.8333 4.66667V2.91667" stroke="#060F2F" strokeWidth="2" strokeLinecap="round"/>
<path opacity="0.5" d="M2.91675 10.5H25.0834" stroke="#060F2F" strokeWidth="2" strokeLinecap="round"/>
<path d="M21.0001 19.8333C21.0001 20.4777 20.4778 21 19.8334 21C19.1891 21 18.6667 20.4777 18.6667 19.8333C18.6667 19.189 19.1891 18.6667 19.8334 18.6667C20.4778 18.6667 21.0001 19.189 21.0001 19.8333Z" fill="#060F2F"/>
<path d="M21.0001 15.1667C21.0001 15.811 20.4778 16.3333 19.8334 16.3333C19.1891 16.3333 18.6667 15.811 18.6667 15.1667C18.6667 14.5223 19.1891 14 19.8334 14C20.4778 14 21.0001 14.5223 21.0001 15.1667Z" fill="#060F2F"/>
<path d="M15.1666 19.8333C15.1666 20.4777 14.6443 21 13.9999 21C13.3556 21 12.8333 20.4777 12.8333 19.8333C12.8333 19.189 13.3556 18.6667 13.9999 18.6667C14.6443 18.6667 15.1666 19.189 15.1666 19.8333Z" fill="#060F2F"/>
<path d="M15.1666 15.1667C15.1666 15.811 14.6443 16.3333 13.9999 16.3333C13.3556 16.3333 12.8333 15.811 12.8333 15.1667C12.8333 14.5223 13.3556 14 13.9999 14C14.6443 14 15.1666 14.5223 15.1666 15.1667Z" fill="#060F2F"/>
<path d="M9.33333 19.8333C9.33333 20.4777 8.81099 21 8.16667 21C7.52234 21 7 20.4777 7 19.8333C7 19.189 7.52234 18.6667 8.16667 18.6667C8.81099 18.6667 9.33333 19.189 9.33333 19.8333Z" fill="#060F2F"/>
<path d="M9.33333 15.1667C9.33333 15.811 8.81099 16.3333 8.16667 16.3333C7.52234 16.3333 7 15.811 7 15.1667C7 14.5223 7.52234 14 8.16667 14C8.81099 14 9.33333 14.5223 9.33333 15.1667Z" fill="#060F2F"/>
</svg>
