<svg width="28" height="28" viewBox="0 0 28 28" fill="none" xmlns="http://www.w3.org/2000/svg">
<path opacity="0.5" d="M13.0035 8.19293C13.4469 7.39765 13.6685 7 14 7C14.3314 7 14.5531 7.39765 14.9964 8.19293L15.1111 8.39868C15.237 8.62468 15.3 8.73768 15.3982 8.81223C15.4965 8.88679 15.6187 8.91446 15.8634 8.96981L16.0861 9.02021C16.947 9.215 17.3775 9.31239 17.4799 9.64171C17.5824 9.97102 17.2888 10.3142 16.702 11.0005L16.5501 11.178C16.3834 11.3731 16.3 11.4706 16.2624 11.5912C16.2249 11.7118 16.2375 11.8419 16.2627 12.1022L16.2857 12.339C16.3744 13.2547 16.4188 13.7125 16.1507 13.9161C15.8825 14.1196 15.4796 13.9341 14.6735 13.563L14.465 13.467C14.2359 13.3615 14.1214 13.3088 14 13.3088C13.8785 13.3088 13.7641 13.3615 13.535 13.467L13.3265 13.563C12.5204 13.9341 12.1175 14.1196 11.8492 13.9161C11.5812 13.7125 11.6255 13.2547 11.7143 12.339L11.7372 12.1022C11.7624 11.8419 11.775 11.7118 11.7376 11.5912C11.7 11.4706 11.6166 11.3731 11.4499 11.178L11.298 11.0005C10.7111 10.3142 10.4177 9.97102 10.5201 9.64171C10.6225 9.31239 11.0529 9.215 11.9139 9.02021L12.1366 8.96981C12.3812 8.91446 12.5035 8.88679 12.6017 8.81223C12.7 8.73768 12.763 8.62468 12.8889 8.39868L13.0035 8.19293Z" stroke="#060F2F" strokeWidth="2"/>
<path d="M22.1666 10.5C22.1666 15.0103 18.5103 18.6667 13.9999 18.6667C9.4896 18.6667 5.83325 15.0103 5.83325 10.5C5.83325 5.98967 9.4896 2.33333 13.9999 2.33333C18.5103 2.33333 22.1666 5.98967 22.1666 10.5Z" stroke="#060F2F" strokeWidth="2"/>
<path opacity="0.5" d="M8.57629 17.5L7.83328 20.2102C7.10022 22.8839 6.73368 24.2208 7.2228 24.9528C7.39422 25.2092 7.62417 25.4151 7.89101 25.5509C8.65241 25.9386 9.82801 25.3261 12.1792 24.101C12.9615 23.6934 13.3527 23.4895 13.7683 23.4452C13.9224 23.4288 14.0776 23.4288 14.2317 23.4452C14.6473 23.4895 15.0384 23.6934 15.8208 24.101C18.172 25.3261 19.3476 25.9386 20.109 25.5509C20.3758 25.4151 20.6058 25.2092 20.7772 24.9528C21.2663 24.2208 20.8998 22.8839 20.1668 20.2102L19.4237 17.5" stroke="#060F2F" strokeWidth="2" strokeLinecap="round"/>
</svg>
