<svg width="28" height="28" viewBox="0 0 28 28" fill="none" xmlns="http://www.w3.org/2000/svg">
<path d="M2.33447 13.9988H18.6678M18.6678 13.9988L14.5845 10.4989M18.6678 13.9988L14.5845 17.4988" stroke="#060F2F" strokeWidth="2" strokeLinecap="round" strokeLinejoin="round"/>
<path opacity="0.5" d="M10.5022 8.16666C10.5163 5.62913 10.6289 4.2549 11.5253 3.35845C12.5505 2.33333 14.2004 2.33333 17.5002 2.33333H18.6668C21.9666 2.33333 23.6166 2.33333 24.6417 3.35845C25.6668 4.38358 25.6668 6.03349 25.6668 9.33333V18.6667C25.6668 21.9665 25.6668 23.6164 24.6417 24.6415C23.6166 25.6667 21.9666 25.6667 18.6668 25.6667H17.5002C14.2004 25.6667 12.5505 25.6667 11.5253 24.6415C10.6289 23.745 10.5163 22.3708 10.5022 19.8333" stroke="#060F2F" strokeWidth="2" strokeLinecap="round"/>
</svg>
