<svg width="28" height="28" viewBox="0 0 28 28" fill="none" xmlns="http://www.w3.org/2000/svg">
<path d="M24.7999 12.789C25.3529 13.5123 25.3529 14.4888 24.7999 15.211C23.0581 17.4848 18.8791 22.1667 14.0001 22.1667C9.12109 22.1667 4.94209 17.4848 3.20026 15.211C2.93121 14.8646 2.78516 14.4386 2.78516 14C2.78516 13.5614 2.93121 13.1353 3.20026 12.789C4.94209 10.5152 9.12109 5.83333 14.0001 5.83333C18.8791 5.83333 23.0581 10.5152 24.7999 12.789Z" stroke="#060F2F" strokeWidth="2" strokeLinecap="round" strokeLinejoin="round"/>
<path d="M14 17.5C15.933 17.5 17.5 15.933 17.5 14C17.5 12.067 15.933 10.5 14 10.5C12.067 10.5 10.5 12.067 10.5 14C10.5 15.933 12.067 17.5 14 17.5Z" stroke="#060F2F" strokeWidth="2" strokeLinecap="round" strokeLinejoin="round"/>
</svg>
