<svg width="28" height="28" viewBox="0 0 28 28" fill="none" xmlns="http://www.w3.org/2000/svg">
<path d="M8.01849 19.9838C5.86599 18.4555 4.16266 16.4675 3.20016 15.2122C2.93101 14.8656 2.78491 14.4394 2.78491 14.0006C2.78491 13.5618 2.93101 13.1355 3.20016 12.789C4.94199 10.5152 9.12099 5.83333 14 5.83333C16.1887 5.83333 18.235 6.77483 19.985 8.01966" stroke="#060F2F" strokeWidth="2" strokeLinecap="round" strokeLinejoin="round"/>
<path d="M16.485 11.5348C16.161 11.2054 15.775 10.9435 15.3492 10.764C14.9235 10.5845 14.4664 10.4911 14.0044 10.4892C13.5424 10.4873 13.0846 10.5768 12.6573 10.7527C12.2301 10.9286 11.8419 11.1874 11.5152 11.514C11.1884 11.8407 10.9296 12.2288 10.7536 12.656C10.5776 13.0832 10.4879 13.541 10.4898 14.003C10.4916 14.465 10.5849 14.9221 10.7642 15.3479C10.9436 15.7737 11.2055 16.1598 11.5348 16.4838" stroke="#060F2F" strokeWidth="2" strokeLinecap="round" strokeLinejoin="round"/>
<path d="M4.66675 23.3333L23.3334 4.66667" stroke="#060F2F" strokeWidth="2" strokeLinecap="round" strokeLinejoin="round"/>
<path d="M11.6667 21.8213C12.4242 22.0468 13.2098 22.1631 14.0001 22.1667C18.8791 22.1667 23.0581 17.4848 24.7999 15.211C25.069 14.8642 25.2149 14.4376 25.2147 13.9986C25.2145 13.5597 25.0682 13.1332 24.7987 12.7867C24.1866 11.9881 23.5299 11.2246 22.8317 10.5" stroke="#060F2F" strokeWidth="2" strokeLinecap="round" strokeLinejoin="round"/>
</svg>
