<svg width="28" height="28" viewBox="0 0 28 28" fill="none" xmlns="http://www.w3.org/2000/svg">
<path d="M12.5957 19.25L8.48315 15.1375C8.48315 15.1375 13.895 2.36688 24.8369 3.0625C24.8369 3.0625 26.3594 13.1775 12.5957 19.25Z" stroke="#060F2F"/>
<path d="M24.5 7.35874C23.5043 7.19925 22.585 6.72736 21.875 6.01124C21.145 5.28326 20.668 4.34008 20.5144 3.32062" stroke="#060F2F"/>
<path opacity="0.5" d="M18.5149 11.7775C19.839 11.7775 20.9124 10.7041 20.9124 9.38C20.9124 8.0559 19.839 6.9825 18.5149 6.9825C17.1908 6.9825 16.1174 8.0559 16.1174 9.38C16.1174 10.7041 17.1908 11.7775 18.5149 11.7775Z" stroke="#060F2F"/>
<path d="M13.3919 18.8825L13.125 20.93C13.1228 20.9482 13.1255 20.9666 13.1327 20.9834C13.1398 21.0003 13.1513 21.015 13.1659 21.026C13.1805 21.0371 13.1977 21.0441 13.2158 21.0465C13.234 21.0488 13.2525 21.0464 13.2694 21.0394L16.7694 19.5212C16.9127 19.4554 17.0388 19.3571 17.1375 19.2341C17.2362 19.111 17.3049 18.9667 17.3381 18.8125L17.8719 16.2619" stroke="#060F2F"/>
<path d="M8.74996 14.5644L6.69809 14.8269C6.68045 14.8291 6.66252 14.8267 6.64614 14.8197C6.62976 14.8128 6.61551 14.8017 6.60484 14.7874C6.59417 14.7732 6.58746 14.7564 6.5854 14.7387C6.58333 14.7211 6.58599 14.7032 6.59309 14.6869L8.10684 11.2087C8.17232 11.0589 8.27289 10.927 8.40005 10.8242C8.52721 10.7215 8.67724 10.6508 8.83746 10.6181L11.3837 10.0844" stroke="#060F2F"/>
<path opacity="0.5" d="M9.40185 16.0475C6.53622 16.9663 6.39185 21.5031 6.39185 21.5031C6.39185 21.5031 10.8018 21.5513 11.9 18.5456" stroke="#060F2F"/>
<path d="M4.75999 23.1087L3.11499 24.7581" stroke="#060F2F" strokeLinecap="round"/>
<path d="M4.63757 19.9631L3.24194 21.3544" stroke="#060F2F" strokeLinecap="round"/>
<path d="M7.84877 23.2356L6.45752 24.6313" stroke="#060F2F" strokeLinecap="round"/>
</svg>
