<svg width="28" height="28" viewBox="0 0 28 28" fill="none" xmlns="http://www.w3.org/2000/svg">
<path d="M3.5 5.83333H8.16667M24.5 5.83333H12.8333M3.5 14H17.5M24.5 14H22.1667M3.5 22.1667H5.83333M24.5 22.1667H10.5" stroke="#060F2F" strokeWidth="2" strokeLinecap="round" strokeLinejoin="round"/>
<path d="M10.4998 8.16667C11.7885 8.16667 12.8332 7.122 12.8332 5.83333C12.8332 4.54467 11.7885 3.5 10.4998 3.5C9.21117 3.5 8.1665 4.54467 8.1665 5.83333C8.1665 7.122 9.21117 8.16667 10.4998 8.16667Z" stroke="#060F2F" strokeWidth="2" strokeLinecap="round" strokeLinejoin="round"/>
<path d="M19.8333 16.3333C21.122 16.3333 22.1667 15.2887 22.1667 14C22.1667 12.7113 21.122 11.6667 19.8333 11.6667C18.5447 11.6667 17.5 12.7113 17.5 14C17.5 15.2887 18.5447 16.3333 19.8333 16.3333Z" stroke="#060F2F" strokeWidth="2" strokeLinecap="round" strokeLinejoin="round"/>
<path d="M8.16683 24.5C9.45549 24.5 10.5002 23.4553 10.5002 22.1667C10.5002 20.878 9.45549 19.8333 8.16683 19.8333C6.87816 19.8333 5.8335 20.878 5.8335 22.1667C5.8335 23.4553 6.87816 24.5 8.16683 24.5Z" stroke="#060F2F" strokeWidth="2" strokeLinecap="round" strokeLinejoin="round"/>
</svg>
