<svg width="28" height="28" viewBox="0 0 28 28" fill="none" xmlns="http://www.w3.org/2000/svg">
<path d="M25.6666 15.1667V14C25.6666 9.60022 25.6666 7.40035 24.2997 6.0335C22.933 4.66667 20.733 4.66667 16.3333 4.66667H11.6666C7.26681 4.66667 5.06693 4.66667 3.70008 6.0335C2.33325 7.40035 2.33325 9.60022 2.33325 14C2.33325 18.3997 2.33325 20.5997 3.70008 21.9665C5.06693 23.3333 7.26681 23.3333 11.6666 23.3333H15.1666" stroke="#060F2F" strokeWidth="2" strokeLinecap="round"/>
<path opacity="0.7" d="M11.6667 18.6667H7" stroke="#060F2F" strokeWidth="2" strokeLinecap="round"/>
<path opacity="0.7" d="M2.33325 11.6667H25.6666" stroke="#060F2F" strokeWidth="2" strokeLinecap="round"/>
<path d="M21 23.3333C22.933 23.3333 24.5 21.7663 24.5 19.8333C24.5 17.9003 22.933 16.3333 21 16.3333C19.067 16.3333 17.5 17.9003 17.5 19.8333C17.5 21.7663 19.067 23.3333 21 23.3333Z" stroke="#060F2F" strokeWidth="2"/>
<path d="M23.9167 22.75L25.0834 23.9167" stroke="#060F2F" strokeWidth="2" strokeLinecap="round"/>
</svg>
