<svg width="28" height="28" viewBox="0 0 28 28" fill="none" xmlns="http://www.w3.org/2000/svg">
<path opacity="0.7" d="M14 6.41782L16.3333 8.75047" stroke="#060F2F" strokeWidth="2" strokeLinecap="round"/>
<path d="M13.9999 6.4174L13.3695 7.02419C13.5344 7.19557 13.762 7.2924 13.9999 7.2924C14.2378 7.2924 14.4654 7.19557 14.6304 7.02419L13.9999 6.4174ZM10.997 21.3756C9.22871 19.9816 7.29517 18.6204 5.76126 16.8931C4.25734 15.1996 3.20825 13.2236 3.20825 10.66H1.45825C1.45825 13.7697 2.75384 16.1421 4.45276 18.0551C6.12169 19.9344 8.24915 21.4377 9.91358 22.7499L10.997 21.3756ZM3.20825 10.66C3.20825 8.15061 4.62618 6.04628 6.56167 5.16156C8.442 4.30206 10.9685 4.52968 13.3695 7.02419L14.6304 5.81062C11.7815 2.85078 8.47469 2.36296 5.83414 3.56996C3.24875 4.75174 1.45825 7.49587 1.45825 10.66H3.20825ZM9.91358 22.7499C10.5112 23.221 11.1527 23.7234 11.8029 24.1032C12.4528 24.483 13.1945 24.7917 13.9999 24.7917V23.0417C13.6387 23.0417 13.2137 22.9009 12.6858 22.5923C12.1581 22.2839 11.6107 21.8594 10.997 21.3756L9.91358 22.7499ZM18.0863 22.7499C19.7507 21.4377 21.8782 19.9344 23.5471 18.0551C25.246 16.1421 26.5416 13.7697 26.5416 10.66H24.7916C24.7916 13.2236 23.7425 15.1996 22.2386 16.8931C20.7046 18.6204 18.7711 19.9816 17.0029 21.3756L18.0863 22.7499ZM26.5416 10.66C26.5416 7.49587 24.7511 4.75174 22.1657 3.56996C19.5251 2.36296 16.2183 2.85078 13.3695 5.81062L14.6304 7.02419C17.0313 4.52968 19.5578 4.30206 21.4381 5.16156C23.3736 6.04628 24.7916 8.15061 24.7916 10.66H26.5416ZM17.0029 21.3756C16.3891 21.8594 15.8417 22.2839 15.3141 22.5923C14.7861 22.9009 14.3611 23.0417 13.9999 23.0417V24.7917C14.8054 24.7917 15.547 24.483 16.197 24.1032C16.8472 23.7234 17.4886 23.221 18.0863 22.7499L17.0029 21.3756Z" fill="#060F2F"/>
</svg>
