<svg width="28" height="28" viewBox="0 0 28 28" fill="none" xmlns="http://www.w3.org/2000/svg">
<path d="M9.33325 7C9.33325 6.78333 9.39359 6.57095 9.50749 6.38664C9.6214 6.20234 9.78438 6.05339 9.97817 5.9565C10.172 5.8596 10.3889 5.81859 10.6047 5.83804C10.8205 5.8575 11.0266 5.93666 11.1999 6.06666L20.5333 13.0667C20.6781 13.1753 20.7958 13.3162 20.8767 13.4782C20.9577 13.6402 20.9999 13.8189 20.9999 14C20.9999 14.1811 20.9577 14.3597 20.8767 14.5217C20.7958 14.6837 20.6781 14.8247 20.5333 14.9333L11.1999 21.9333C11.0266 22.0633 10.8205 22.1425 10.6047 22.1619C10.3889 22.1814 10.172 22.1404 9.97817 22.0435C9.78438 21.9466 9.6214 21.7977 9.50749 21.6133C9.39359 21.429 9.33325 21.2167 9.33325 21V7Z" fill="#060F2F"/>
</svg>
