<svg width="28" height="28" viewBox="0 0 28 28" fill="none" xmlns="http://www.w3.org/2000/svg">
<path opacity="0.5" d="M25.6666 12.25V14C25.6666 19.4997 25.6666 22.2496 23.958 23.9581C22.2495 25.6667 19.4996 25.6667 13.9999 25.6667C8.50019 25.6667 5.75034 25.6667 4.0418 23.9581C2.33325 22.2496 2.33325 19.4997 2.33325 14C2.33325 8.50027 2.33325 5.75041 4.0418 4.04188C5.75034 2.33333 8.50019 2.33333 13.9999 2.33333H15.7499" stroke="#060F2F" strokeWidth="2" strokeLinecap="round"/>
<path d="M22.1665 9.33333C24.0995 9.33333 25.6665 7.76632 25.6665 5.83333C25.6665 3.90033 24.0995 2.33333 22.1665 2.33333C20.2335 2.33333 18.6665 3.90033 18.6665 5.83333C18.6665 7.76632 20.2335 9.33333 22.1665 9.33333Z" stroke="#060F2F" strokeWidth="2"/>
</svg>
