<svg width="28" height="28" viewBox="0 0 28 28" fill="none" xmlns="http://www.w3.org/2000/svg">
<path opacity="0.5" d="M2.33325 14C2.33325 8.50027 2.33325 5.75041 4.0418 4.04188C5.75034 2.33333 8.50019 2.33333 13.9999 2.33333C19.4996 2.33333 22.2495 2.33333 23.958 4.04188C25.6666 5.75041 25.6666 8.50027 25.6666 14" stroke="#060F2F" strokeWidth="2"/>
<path d="M2.33325 16.3333C2.33325 13.0663 2.33325 11.4329 2.96905 10.1851C3.5283 9.08745 4.4207 8.19505 5.51831 7.6358C6.76613 7 8.39962 7 11.6666 7H16.3333C19.6003 7 21.2337 7 22.4816 7.6358C23.5792 8.19505 24.4716 9.08745 25.0308 10.1851C25.6666 11.4329 25.6666 13.0663 25.6666 16.3333C25.6666 19.6003 25.6666 21.2338 25.0308 22.4817C24.4716 23.5793 23.5792 24.4716 22.4816 25.0308C21.2337 25.6667 19.6003 25.6667 16.3333 25.6667H11.6666C8.39962 25.6667 6.76613 25.6667 5.51831 25.0308C4.4207 24.4716 3.5283 23.5793 2.96905 22.4817C2.33325 21.2338 2.33325 19.6003 2.33325 16.3333Z" stroke="#060F2F" strokeWidth="2"/>
<path d="M11.0833 16.8L12.75 18.6667L16.9166 14" stroke="#060F2F" strokeWidth="2" strokeLinecap="round" strokeLinejoin="round"/>
</svg>
