<svg width="28" height="28" viewBox="0 0 28 28" fill="none" xmlns="http://www.w3.org/2000/svg">
<path opacity="0.5" d="M2.33325 14C2.33325 8.50027 2.33325 5.75041 4.0418 4.04188C5.75034 2.33333 8.50019 2.33333 13.9999 2.33333C19.4996 2.33333 22.2495 2.33333 23.958 4.04188C25.6666 5.75041 25.6666 8.50027 25.6666 14C25.6666 19.4997 25.6666 22.2496 23.958 23.9581C22.2495 25.6667 19.4996 25.6667 13.9999 25.6667C8.50019 25.6667 5.75034 25.6667 4.0418 23.9581C2.33325 22.2496 2.33325 19.4997 2.33325 14Z" stroke="#060F2F" strokeWidth="2"/>
<path d="M10.5 9.91667L14 13.4167L17.5 9.91667" stroke="#060F2F" strokeWidth="2" strokeLinecap="round" strokeLinejoin="round"/>
<path d="M10.5 14.5833L14 18.0833L17.5 14.5833" stroke="#060F2F" strokeWidth="2" strokeLinecap="round" strokeLinejoin="round"/>
</svg>
