<svg width="28" height="28" viewBox="0 0 28 28" fill="none" xmlns="http://www.w3.org/2000/svg">
<path opacity="0.5" d="M11.4116 4.53865C12.0694 3.97803 12.3983 3.69773 12.7422 3.53336C13.5377 3.15317 14.4624 3.15317 15.2578 3.53336C15.6017 3.69773 15.9306 3.97803 16.5885 4.53865C16.8503 4.76178 16.9812 4.87335 17.1211 4.96705C17.4416 5.18187 17.8015 5.33096 18.1799 5.40568C18.3451 5.43829 18.5165 5.45198 18.8595 5.47934C19.7211 5.54809 20.1518 5.58247 20.5113 5.70941C21.3425 6.00304 21.9965 6.6569 22.2901 7.48818C22.417 7.8476 22.4513 8.27839 22.5202 9.13997C22.5475 9.48289 22.5611 9.65435 22.5938 9.81948C22.6684 10.198 22.8175 10.5579 23.0324 10.8784C23.1261 11.0182 23.2377 11.1492 23.4609 11.411C24.0214 12.0688 24.3018 12.3978 24.4662 12.7416C24.8463 13.5371 24.8463 14.4618 24.4662 15.2572C24.3018 15.6011 24.0214 15.93 23.4609 16.5879C23.2377 16.8497 23.1261 16.9806 23.0324 17.1205C22.8175 17.441 22.6684 17.8009 22.5938 18.1795C22.5611 18.3446 22.5475 18.5161 22.5202 18.8589C22.4513 19.7205 22.417 20.1513 22.2901 20.5107C21.9965 21.342 21.3425 21.9959 20.5113 22.2895C20.1518 22.4165 19.7211 22.4508 18.8595 22.5196C18.5165 22.5469 18.3451 22.5607 18.1799 22.5932C17.8015 22.668 17.4416 22.817 17.1211 23.0319C16.9812 23.1256 16.8503 23.2371 16.5885 23.4603C15.9306 24.0209 15.6017 24.3012 15.2578 24.4656C14.4624 24.8457 13.5377 24.8457 12.7422 24.4656C12.3983 24.3012 12.0694 24.0209 11.4116 23.4603C11.1497 23.2371 11.0188 23.1256 10.879 23.0319C10.5585 22.817 10.1986 22.668 9.82004 22.5932C9.65491 22.5607 9.48346 22.5469 9.14054 22.5196C8.27896 22.4508 7.84816 22.4165 7.48875 22.2895C6.65747 21.9959 6.0036 21.342 5.70998 20.5107C5.58304 20.1513 5.54866 19.7205 5.4799 18.8589C5.45253 18.5161 5.43886 18.3446 5.40625 18.1795C5.33153 17.8009 5.18244 17.441 4.96762 17.1205C4.87391 16.9806 4.76235 16.8497 4.53922 16.5879C3.9786 15.93 3.6983 15.6011 3.53392 15.2572C3.15373 14.4618 3.15373 13.5371 3.53392 12.7416C3.6983 12.3977 3.9786 12.0688 4.53922 11.411C4.76235 11.1492 4.87391 11.0182 4.96762 10.8784C5.18244 10.5579 5.33153 10.198 5.40625 9.81948C5.43886 9.65435 5.45253 9.48289 5.4799 9.13997C5.54866 8.27839 5.58304 7.8476 5.70998 7.48818C6.0036 6.6569 6.65747 6.00304 7.48875 5.70941C7.84816 5.58247 8.27896 5.54809 9.14054 5.47934C9.48346 5.45198 9.65491 5.43829 9.82004 5.40568C10.1986 5.33096 10.5585 5.18187 10.879 4.96705C11.0188 4.87335 11.1497 4.76178 11.4116 4.53865Z" stroke="#060F2F" strokeWidth="2"/>
<path d="M10.5 17.5L17.5 10.5" stroke="#060F2F" strokeWidth="2" strokeLinecap="round"/>
<path d="M18.0833 16.9167C18.0833 17.561 17.561 18.0833 16.9167 18.0833C16.2723 18.0833 15.75 17.561 15.75 16.9167C15.75 16.2723 16.2723 15.75 16.9167 15.75C17.561 15.75 18.0833 16.2723 18.0833 16.9167Z" fill="#060F2F"/>
<path d="M12.2501 11.0833C12.2501 11.7277 11.7278 12.25 11.0834 12.25C10.4391 12.25 9.91675 11.7277 9.91675 11.0833C9.91675 10.439 10.4391 9.91667 11.0834 9.91667C11.7278 9.91667 12.2501 10.439 12.2501 11.0833Z" fill="#060F2F"/>
</svg>
