<svg width="28" height="28" viewBox="0 0 28 28" fill="none" xmlns="http://www.w3.org/2000/svg">
<path opacity="0.5" d="M5.51648 18.8264C3.71336 17.0233 2.8118 16.1217 2.47633 14.952C2.14086 13.7823 2.42756 12.5399 3.00095 10.0552L3.33162 8.62233C3.81401 6.53194 4.05522 5.48674 4.77093 4.77101C5.48666 4.0553 6.53185 3.81409 8.62225 3.33169L10.0551 3.00103C12.5398 2.42763 13.7822 2.14094 14.9519 2.47641C16.1216 2.81187 17.0232 3.71344 18.8263 5.51656L20.9608 7.65114C24.098 10.7883 25.6666 12.3569 25.6666 14.306C25.6666 16.2552 24.098 17.8237 20.9608 20.9609C17.8237 24.0981 16.2551 25.6667 14.3059 25.6667C12.3568 25.6667 10.7882 24.0981 7.65106 20.9609L5.51648 18.8264Z" stroke="#060F2F" strokeWidth="2"/>
<path d="M17.9542 17.9539C18.6376 17.2705 18.7299 16.2548 18.1604 15.6852C17.5909 15.1158 16.5752 15.2081 15.8917 15.8915C15.2084 16.5749 14.1927 16.6673 13.6232 16.0978C13.0536 15.5282 13.146 14.5125 13.8294 13.8292M17.9542 17.9539L18.3667 18.3664M17.9542 17.9539C17.4863 18.4218 16.8629 18.6126 16.3333 18.5038M13.8294 13.8292L13.4169 13.4167M13.8294 13.8292C14.2158 13.4427 14.7085 13.2453 15.1667 13.2496" stroke="#060F2F" strokeWidth="2" strokeLinecap="round"/>
<path d="M11.6914 12.0086C12.6027 11.0974 12.6027 9.62004 11.6914 8.70882C10.7802 7.7976 9.30284 7.7976 8.39161 8.70882C7.48039 9.62004 7.48039 11.0974 8.39161 12.0086C9.30284 12.9199 10.7802 12.9199 11.6914 12.0086Z" stroke="#060F2F" strokeWidth="2"/>
</svg>
