<svg width="28" height="28" viewBox="0 0 28 28" fill="none" xmlns="http://www.w3.org/2000/svg">
<path d="M13.5392 6.74567L13.8076 3.98184C13.9137 2.87117 14.9509 2.11751 15.9986 2.38817C17.5747 2.79651 18.6819 4.26067 18.6819 5.93951V9.48034C18.6819 10.2678 18.6819 10.6622 18.8522 10.9503C18.9491 11.1148 19.0821 11.2537 19.2407 11.3528C19.5207 11.529 19.9022 11.529 20.6641 11.529H21.1261C23.1129 11.529 24.1057 11.529 24.7171 11.984C25.1756 12.3258 25.4987 12.8263 25.6271 13.3933C25.7974 14.1517 25.4159 15.1002 24.6517 16.9948L24.2714 17.9398C24.0508 18.4872 23.9605 19.0783 24.0077 19.6665C24.2784 23.0195 21.6196 25.844 18.3692 25.6585L6.20791 24.9597C4.87908 24.8838 4.21524 24.8453 3.61558 24.3145C3.01474 23.7837 2.90158 23.2365 2.67641 22.1433C2.19718 19.8177 2.21906 17.4167 2.74058 15.1002C3.07074 13.6442 4.46141 12.8602 5.89758 13.0468C9.70558 13.5368 13.1577 10.6902 13.5392 6.74567Z" stroke="#060F2F" strokeWidth="2" strokeLinecap="round" strokeLinejoin="round"/>
<path opacity="0.5" d="M8.16674 13.4167L8.0069 13.9498C6.97219 17.3991 7.02801 21.0837 8.16674 24.5" stroke="#060F2F" strokeWidth="2" strokeLinecap="round" strokeLinejoin="round"/>
</svg>
