<svg width="28" height="28" viewBox="0 0 28 28" fill="none" xmlns="http://www.w3.org/2000/svg">
<path d="M4.66675 7H23.3334L21.4901 23.59C21.4269 24.1609 21.1553 24.6885 20.7274 25.0717C20.2994 25.4549 19.7452 25.6667 19.1707 25.6667H8.82941C8.25499 25.6667 7.70074 25.4549 7.27279 25.0717C6.84484 24.6885 6.57327 24.1609 6.51008 23.59L4.66675 7Z" stroke="#060F2F" strokeWidth="2" strokeLinecap="round" strokeLinejoin="round"/>
<path d="M8.56917 3.6715C8.75788 3.27129 9.05649 2.93299 9.43017 2.69606C9.80385 2.45912 10.2372 2.33332 10.6797 2.33333H17.3203C17.763 2.3331 18.1966 2.4588 18.5705 2.69575C18.9444 2.93269 19.2432 3.27111 19.432 3.6715L21 7H7L8.56917 3.6715Z" stroke="#060F2F" strokeWidth="2" strokeLinecap="round" strokeLinejoin="round"/>
<path d="M2.33325 7H25.6666" stroke="#060F2F" strokeWidth="2" strokeLinecap="round" strokeLinejoin="round"/>
<path opacity="0.5" d="M11.6667 12.8333V18.6667" stroke="#060F2F" strokeWidth="2" strokeLinecap="round" strokeLinejoin="round"/>
<path opacity="0.5" d="M16.3333 12.8333V18.6667" stroke="#060F2F" strokeWidth="2" strokeLinecap="round" strokeLinejoin="round"/>
</svg>
