<?xml version="1.0" encoding="UTF-8"?>
<svg xmlns="http://www.w3.org/2000/svg" xmlns:xlink="http://www.w3.org/1999/xlink" width="0" height="0">
<symbol id="Discount" width="28" height="28" viewBox="0 0 28 28" fill="none">
<path opacity="0.5" d="M13.0035 8.19293C13.4469 7.39765 13.6685 7 14 7C14.3314 7 14.5531 7.39765 14.9964 8.19293L15.1111 8.39868C15.237 8.62468 15.3 8.73768 15.3982 8.81223C15.4965 8.88679 15.6187 8.91446 15.8634 8.96981L16.0861 9.02021C16.947 9.215 17.3775 9.31239 17.4799 9.64171C17.5824 9.97102 17.2888 10.3142 16.702 11.0005L16.5501 11.178C16.3834 11.3731 16.3 11.4706 16.2624 11.5912C16.2249 11.7118 16.2375 11.8419 16.2627 12.1022L16.2857 12.339C16.3744 13.2547 16.4188 13.7125 16.1507 13.9161C15.8825 14.1196 15.4796 13.9341 14.6735 13.563L14.465 13.467C14.2359 13.3615 14.1214 13.3088 14 13.3088C13.8785 13.3088 13.7641 13.3615 13.535 13.467L13.3265 13.563C12.5204 13.9341 12.1175 14.1196 11.8492 13.9161C11.5812 13.7125 11.6255 13.2547 11.7143 12.339L11.7372 12.1022C11.7624 11.8419 11.775 11.7118 11.7376 11.5912C11.7 11.4706 11.6166 11.3731 11.4499 11.178L11.298 11.0005C10.7111 10.3142 10.4177 9.97102 10.5201 9.64171C10.6225 9.31239 11.0529 9.215 11.9139 9.02021L12.1366 8.96981C12.3812 8.91446 12.5035 8.88679 12.6017 8.81223C12.7 8.73768 12.763 8.62468 12.8889 8.39868L13.0035 8.19293Z" stroke="#060F2F" strokeWidth="2"/>
<path d="M22.1666 10.5C22.1666 15.0103 18.5103 18.6667 13.9999 18.6667C9.4896 18.6667 5.83325 15.0103 5.83325 10.5C5.83325 5.98967 9.4896 2.33333 13.9999 2.33333C18.5103 2.33333 22.1666 5.98967 22.1666 10.5Z" stroke="#060F2F" strokeWidth="2"/>
<path opacity="0.5" d="M8.57629 17.5L7.83328 20.2102C7.10022 22.8839 6.73368 24.2208 7.2228 24.9528C7.39422 25.2092 7.62417 25.4151 7.89101 25.5509C8.65241 25.9386 9.82801 25.3261 12.1792 24.101C12.9615 23.6934 13.3527 23.4895 13.7683 23.4452C13.9224 23.4288 14.0776 23.4288 14.2317 23.4452C14.6473 23.4895 15.0384 23.6934 15.8208 24.101C18.172 25.3261 19.3476 25.9386 20.109 25.5509C20.3758 25.4151 20.6058 25.2092 20.7772 24.9528C21.2663 24.2208 20.8998 22.8839 20.1668 20.2102L19.4237 17.5" stroke="#060F2F" strokeWidth="2" strokeLinecap="round"/>
</symbol>

<symbol id="Exit" width="28" height="28" viewBox="0 0 28 28" fill="none">
<path d="M2.33447 13.9988H18.6678M18.6678 13.9988L14.5845 10.4989M18.6678 13.9988L14.5845 17.4988" stroke="#060F2F" strokeWidth="2" strokeLinecap="round" strokeLinejoin="round"/>
<path opacity="0.5" d="M10.5022 8.16666C10.5163 5.62913 10.6289 4.2549 11.5253 3.35845C12.5505 2.33333 14.2004 2.33333 17.5002 2.33333H18.6668C21.9666 2.33333 23.6166 2.33333 24.6417 3.35845C25.6668 4.38358 25.6668 6.03349 25.6668 9.33333V18.6667C25.6668 21.9665 25.6668 23.6164 24.6417 24.6415C23.6166 25.6667 21.9666 25.6667 18.6668 25.6667H17.5002C14.2004 25.6667 12.5505 25.6667 11.5253 24.6415C10.6289 23.745 10.5163 22.3708 10.5022 19.8333" stroke="#060F2F" strokeWidth="2" strokeLinecap="round"/>
</symbol>

<symbol id="Payments" width="28" height="28" viewBox="0 0 28 28" fill="none">
<path d="M20.3166 12.1499C21 11.4665 21 10.3666 21 8.16667C21 5.96678 21 4.86683 20.3166 4.18342M20.3166 12.1499C19.6331 12.8333 18.5332 12.8333 16.3333 12.8333H11.6667C9.46678 12.8333 8.36683 12.8333 7.68342 12.1499M20.3166 4.18342C19.6331 3.5 18.5332 3.5 16.3333 3.5H11.6667C9.46678 3.5 8.36683 3.5 7.68342 4.18342M7.68342 4.18342C7 4.86683 7 5.96678 7 8.16667C7 10.3666 7 11.4665 7.68342 12.1499" stroke="#060F2F" strokeWidth="2"/>
<path opacity="0.5" d="M15.1666 8.16667C15.1666 8.81099 14.6443 9.33333 13.9999 9.33333C13.3556 9.33333 12.8333 8.81099 12.8333 8.16667C12.8333 7.52234 13.3556 7 13.9999 7C14.6443 7 15.1666 7.52234 15.1666 8.16667Z" stroke="#060F2F" strokeWidth="2"/>
<path opacity="0.5" d="M21 7C19.0669 7 17.5 5.43299 17.5 3.5" stroke="#060F2F" strokeWidth="2" strokeLinecap="round"/>
<path opacity="0.5" d="M21 9.33333C19.0669 9.33333 17.5 10.9003 17.5 12.8333" stroke="#060F2F" strokeWidth="2" strokeLinecap="round"/>
<path opacity="0.5" d="M7 7C8.93299 7 10.5 5.43299 10.5 3.5" stroke="#060F2F" strokeWidth="2" strokeLinecap="round"/>
<path opacity="0.5" d="M7 9.33333C8.93299 9.33333 10.5 10.9003 10.5 12.8333" stroke="#060F2F" strokeWidth="2" strokeLinecap="round"/>
<path opacity="0.5" d="M4.66675 24.9531H7.30333C8.48267 24.9531 9.6747 25.076 10.8225 25.3125C12.8528 25.7307 14.9903 25.7814 17.0415 25.4494C18.0528 25.2856 19.0471 25.0354 19.9472 24.6009C20.7596 24.2088 21.7548 23.656 22.4233 23.0369C23.0909 22.4187 23.7861 21.4068 24.2795 20.6158C24.7026 19.9376 24.498 19.1056 23.8287 18.6002C23.0853 18.0389 21.9821 18.039 21.2388 18.6005L19.1304 20.1931C18.3132 20.8104 17.4207 21.3786 16.3574 21.5482C16.2296 21.5686 16.0956 21.5872 15.9559 21.6034M15.9559 21.6034C15.9138 21.6083 15.8712 21.613 15.828 21.6174M15.9559 21.6034C16.126 21.567 16.2948 21.462 16.4533 21.3238C17.2037 20.6688 17.2511 19.565 16.6 18.8336C16.449 18.664 16.2722 18.5225 16.0757 18.4052C12.8121 16.4586 7.7344 17.9412 4.66675 20.1167M15.9559 21.6034C15.9133 21.6125 15.8706 21.6174 15.828 21.6174M15.828 21.6174C15.2174 21.6801 14.5031 21.6963 13.7105 21.6214" stroke="#060F2F" strokeWidth="2" strokeLinecap="round"/>
</symbol>

<symbol id="Address" width="28" height="28" viewBox="0 0 28 28" fill="none">
<path d="M25.6666 25.6667H2.33325" stroke="#060F2F" strokeWidth="2" strokeLinecap="round"/>
<path d="M2.33325 12.8333L11.8135 5.24919C13.0918 4.22659 14.9081 4.22659 16.1864 5.24919L25.6666 12.8333" stroke="#060F2F" strokeWidth="2" strokeLinecap="round"/>
<path opacity="0.5" d="M18.0833 6.41667V4.08333C18.0833 3.76117 18.3445 3.5 18.6666 3.5H21.5833C21.9054 3.5 22.1666 3.76117 22.1666 4.08333V9.91667" stroke="#060F2F" strokeWidth="2" strokeLinecap="round"/>
<path d="M4.66675 25.6667V11.0833" stroke="#060F2F" strokeWidth="2" strokeLinecap="round"/>
<path d="M23.3333 25.6667V11.0833" stroke="#060F2F" strokeWidth="2" strokeLinecap="round"/>
<path opacity="0.5" d="M17.5 25.6667V19.8333C17.5 18.1834 17.5 17.3585 16.9875 16.8458C16.4749 16.3333 15.6499 16.3333 14 16.3333C12.3501 16.3333 11.5251 16.3333 11.0126 16.8458C10.5 17.3585 10.5 18.1834 10.5 19.8333V25.6667" stroke="#060F2F" strokeWidth="2"/>
<path opacity="0.5" d="M16.3334 11.0833C16.3334 12.372 15.2888 13.4167 14.0001 13.4167C12.7114 13.4167 11.6667 12.372 11.6667 11.0833C11.6667 9.79467 12.7114 8.75 14.0001 8.75C15.2888 8.75 16.3334 9.79467 16.3334 11.0833Z" stroke="#060F2F" strokeWidth="2"/>
</symbol>

<symbol id="Orders" width="28" height="28" viewBox="0 0 28 28" fill="none">
<path opacity="0.5" d="M2.33325 14C2.33325 8.50027 2.33325 5.75041 4.0418 4.04188C5.75034 2.33333 8.50019 2.33333 13.9999 2.33333C19.4996 2.33333 22.2495 2.33333 23.958 4.04188C25.6666 5.75041 25.6666 8.50027 25.6666 14" stroke="#060F2F" strokeWidth="2"/>
<path d="M2.33325 16.3333C2.33325 13.0663 2.33325 11.4329 2.96905 10.1851C3.5283 9.08745 4.4207 8.19505 5.51831 7.6358C6.76613 7 8.39962 7 11.6666 7H16.3333C19.6003 7 21.2337 7 22.4816 7.6358C23.5792 8.19505 24.4716 9.08745 25.0308 10.1851C25.6666 11.4329 25.6666 13.0663 25.6666 16.3333C25.6666 19.6003 25.6666 21.2338 25.0308 22.4817C24.4716 23.5793 23.5792 24.4716 22.4816 25.0308C21.2337 25.6667 19.6003 25.6667 16.3333 25.6667H11.6666C8.39962 25.6667 6.76613 25.6667 5.51831 25.0308C4.4207 24.4716 3.5283 23.5793 2.96905 22.4817C2.33325 21.2338 2.33325 19.6003 2.33325 16.3333Z" stroke="#060F2F" strokeWidth="2"/>
<path d="M11.0833 16.8L12.75 18.6667L16.9166 14" stroke="#060F2F" strokeWidth="2" strokeLinecap="round" strokeLinejoin="round"/>
</symbol>

<symbol id="Fast" width="28" height="28" viewBox="0 0 28 28" fill="none">
<path d="M12.5957 19.25L8.48315 15.1375C8.48315 15.1375 13.895 2.36688 24.8369 3.0625C24.8369 3.0625 26.3594 13.1775 12.5957 19.25Z" stroke="#060F2F"/>
<path d="M24.5 7.35874C23.5043 7.19925 22.585 6.72736 21.875 6.01124C21.145 5.28326 20.668 4.34008 20.5144 3.32062" stroke="#060F2F"/>
<path opacity="0.5" d="M18.5149 11.7775C19.839 11.7775 20.9124 10.7041 20.9124 9.38C20.9124 8.0559 19.839 6.9825 18.5149 6.9825C17.1908 6.9825 16.1174 8.0559 16.1174 9.38C16.1174 10.7041 17.1908 11.7775 18.5149 11.7775Z" stroke="#060F2F"/>
<path d="M13.3919 18.8825L13.125 20.93C13.1228 20.9482 13.1255 20.9666 13.1327 20.9834C13.1398 21.0003 13.1513 21.015 13.1659 21.026C13.1805 21.0371 13.1977 21.0441 13.2158 21.0465C13.234 21.0488 13.2525 21.0464 13.2694 21.0394L16.7694 19.5212C16.9127 19.4554 17.0388 19.3571 17.1375 19.2341C17.2362 19.111 17.3049 18.9667 17.3381 18.8125L17.8719 16.2619" stroke="#060F2F"/>
<path d="M8.74996 14.5644L6.69809 14.8269C6.68045 14.8291 6.66252 14.8267 6.64614 14.8197C6.62976 14.8128 6.61551 14.8017 6.60484 14.7874C6.59417 14.7732 6.58746 14.7564 6.5854 14.7387C6.58333 14.7211 6.58599 14.7032 6.59309 14.6869L8.10684 11.2087C8.17232 11.0589 8.27289 10.927 8.40005 10.8242C8.52721 10.7215 8.67724 10.6508 8.83746 10.6181L11.3837 10.0844" stroke="#060F2F"/>
<path opacity="0.5" d="M9.40185 16.0475C6.53622 16.9663 6.39185 21.5031 6.39185 21.5031C6.39185 21.5031 10.8018 21.5513 11.9 18.5456" stroke="#060F2F"/>
<path d="M4.75999 23.1087L3.11499 24.7581" stroke="#060F2F" strokeLinecap="round"/>
<path d="M4.63757 19.9631L3.24194 21.3544" stroke="#060F2F" strokeLinecap="round"/>
<path d="M7.84877 23.2356L6.45752 24.6313" stroke="#060F2F" strokeLinecap="round"/>
</symbol>

<symbol id="Top" width="28" height="28" viewBox="0 0 28 28" fill="none">
<path d="M13.5392 6.74567L13.8076 3.98184C13.9137 2.87117 14.9509 2.11751 15.9986 2.38817C17.5747 2.79651 18.6819 4.26067 18.6819 5.93951V9.48034C18.6819 10.2678 18.6819 10.6622 18.8522 10.9503C18.9491 11.1148 19.0821 11.2537 19.2407 11.3528C19.5207 11.529 19.9022 11.529 20.6641 11.529H21.1261C23.1129 11.529 24.1057 11.529 24.7171 11.984C25.1756 12.3258 25.4987 12.8263 25.6271 13.3933C25.7974 14.1517 25.4159 15.1002 24.6517 16.9948L24.2714 17.9398C24.0508 18.4872 23.9605 19.0783 24.0077 19.6665C24.2784 23.0195 21.6196 25.844 18.3692 25.6585L6.20791 24.9597C4.87908 24.8838 4.21524 24.8453 3.61558 24.3145C3.01474 23.7837 2.90158 23.2365 2.67641 22.1433C2.19718 19.8177 2.21906 17.4167 2.74058 15.1002C3.07074 13.6442 4.46141 12.8602 5.89758 13.0468C9.70558 13.5368 13.1577 10.6902 13.5392 6.74567Z" stroke="#060F2F" strokeWidth="2" strokeLinecap="round" strokeLinejoin="round"/>
<path opacity="0.5" d="M8.16674 13.4167L8.0069 13.9498C6.97219 17.3991 7.02801 21.0837 8.16674 24.5" stroke="#060F2F" strokeWidth="2" strokeLinecap="round" strokeLinejoin="round"/>
</symbol>

<symbol id="Trash" width="28" height="28" viewBox="0 0 28 28" fill="none">
<path d="M4.66675 7H23.3334L21.4901 23.59C21.4269 24.1609 21.1553 24.6885 20.7274 25.0717C20.2994 25.4549 19.7452 25.6667 19.1707 25.6667H8.82941C8.25499 25.6667 7.70074 25.4549 7.27279 25.0717C6.84484 24.6885 6.57327 24.1609 6.51008 23.59L4.66675 7Z" stroke="#060F2F" strokeWidth="2" strokeLinecap="round" strokeLinejoin="round"/>
<path d="M8.56917 3.6715C8.75788 3.27129 9.05649 2.93299 9.43017 2.69606C9.80385 2.45912 10.2372 2.33332 10.6797 2.33333H17.3203C17.763 2.3331 18.1966 2.4588 18.5705 2.69575C18.9444 2.93269 19.2432 3.27111 19.432 3.6715L21 7H7L8.56917 3.6715Z" stroke="#060F2F" strokeWidth="2" strokeLinecap="round" strokeLinejoin="round"/>
<path d="M2.33325 7H25.6666" stroke="#060F2F" strokeWidth="2" strokeLinecap="round" strokeLinejoin="round"/>
<path opacity="0.5" d="M11.6667 12.8333V18.6667" stroke="#060F2F" strokeWidth="2" strokeLinecap="round" strokeLinejoin="round"/>
<path opacity="0.5" d="M16.3333 12.8333V18.6667" stroke="#060F2F" strokeWidth="2" strokeLinecap="round" strokeLinejoin="round"/>
</symbol>

<symbol id="Find Card" width="28" height="28" viewBox="0 0 28 28" fill="none">
<path d="M25.6666 15.1667V14C25.6666 9.60022 25.6666 7.40035 24.2997 6.0335C22.933 4.66667 20.733 4.66667 16.3333 4.66667H11.6666C7.26681 4.66667 5.06693 4.66667 3.70008 6.0335C2.33325 7.40035 2.33325 9.60022 2.33325 14C2.33325 18.3997 2.33325 20.5997 3.70008 21.9665C5.06693 23.3333 7.26681 23.3333 11.6666 23.3333H15.1666" stroke="#060F2F" strokeWidth="2" strokeLinecap="round"/>
<path opacity="0.7" d="M11.6667 18.6667H7" stroke="#060F2F" strokeWidth="2" strokeLinecap="round"/>
<path opacity="0.7" d="M2.33325 11.6667H25.6666" stroke="#060F2F" strokeWidth="2" strokeLinecap="round"/>
<path d="M21 23.3333C22.933 23.3333 24.5 21.7663 24.5 19.8333C24.5 17.9003 22.933 16.3333 21 16.3333C19.067 16.3333 17.5 17.9003 17.5 19.8333C17.5 21.7663 19.067 23.3333 21 23.3333Z" stroke="#060F2F" strokeWidth="2"/>
<path d="M23.9167 22.75L25.0834 23.9167" stroke="#060F2F" strokeWidth="2" strokeLinecap="round"/>
</symbol>

<symbol id="BackSpace" width="28" height="28" viewBox="0 0 28 28" fill="none">
<path opacity="0.7" d="M12.9989 23.3333C10.4003 23.3333 9.10091 23.3333 8.01625 22.7484C6.9316 22.1633 6.24295 21.0911 4.86563 18.9467L4.07136 17.71C2.91262 15.9059 2.33325 15.0038 2.33325 14C2.33325 12.9962 2.91262 12.0941 4.07136 10.29L4.86563 9.05335C6.24295 6.9089 6.9316 5.83668 8.01625 5.25167C9.10091 4.66667 10.4003 4.66667 12.9989 4.66667H16.0754C20.5967 4.66667 22.8574 4.66667 24.262 6.0335C25.6666 7.40035 25.6666 9.60022 25.6666 14C25.6666 18.3997 25.6666 20.5997 24.262 21.9665C22.8574 23.3333 20.5967 23.3333 16.0754 23.3333H12.9989Z" stroke="#060F2F" strokeWidth="2"/>
<path d="M18.0833 11.0834L12.25 16.9167M12.25 11.0833L18.0833 16.9167" stroke="#060F2F" strokeWidth="2" strokeLinecap="round"/>
</symbol>

<symbol id="Eye Closed" width="28" height="28" viewBox="0 0 28 28" fill="none">
<path d="M8.01849 19.9838C5.86599 18.4555 4.16266 16.4675 3.20016 15.2122C2.93101 14.8656 2.78491 14.4394 2.78491 14.0006C2.78491 13.5618 2.93101 13.1355 3.20016 12.789C4.94199 10.5152 9.12099 5.83333 14 5.83333C16.1887 5.83333 18.235 6.77483 19.985 8.01966" stroke="#060F2F" strokeWidth="2" strokeLinecap="round" strokeLinejoin="round"/>
<path d="M16.485 11.5348C16.161 11.2054 15.775 10.9435 15.3492 10.764C14.9235 10.5845 14.4664 10.4911 14.0044 10.4892C13.5424 10.4873 13.0846 10.5768 12.6573 10.7527C12.2301 10.9286 11.8419 11.1874 11.5152 11.514C11.1884 11.8407 10.9296 12.2288 10.7536 12.656C10.5776 13.0832 10.4879 13.541 10.4898 14.003C10.4916 14.465 10.5849 14.9221 10.7642 15.3479C10.9436 15.7737 11.2055 16.1598 11.5348 16.4838" stroke="#060F2F" strokeWidth="2" strokeLinecap="round" strokeLinejoin="round"/>
<path d="M4.66675 23.3333L23.3334 4.66667" stroke="#060F2F" strokeWidth="2" strokeLinecap="round" strokeLinejoin="round"/>
<path d="M11.6667 21.8213C12.4242 22.0468 13.2098 22.1631 14.0001 22.1667C18.8791 22.1667 23.0581 17.4848 24.7999 15.211C25.069 14.8642 25.2149 14.4376 25.2147 13.9986C25.2145 13.5597 25.0682 13.1332 24.7987 12.7867C24.1866 11.9881 23.5299 11.2246 22.8317 10.5" stroke="#060F2F" strokeWidth="2" strokeLinecap="round" strokeLinejoin="round"/>
</symbol>

<symbol id="Eye Open" width="28" height="28" viewBox="0 0 28 28" fill="none">
<path d="M24.7999 12.789C25.3529 13.5123 25.3529 14.4888 24.7999 15.211C23.0581 17.4848 18.8791 22.1667 14.0001 22.1667C9.12109 22.1667 4.94209 17.4848 3.20026 15.211C2.93121 14.8646 2.78516 14.4386 2.78516 14C2.78516 13.5614 2.93121 13.1353 3.20026 12.789C4.94209 10.5152 9.12109 5.83333 14.0001 5.83333C18.8791 5.83333 23.0581 10.5152 24.7999 12.789Z" stroke="#060F2F" strokeWidth="2" strokeLinecap="round" strokeLinejoin="round"/>
<path d="M14 17.5C15.933 17.5 17.5 15.933 17.5 14C17.5 12.067 15.933 10.5 14 10.5C12.067 10.5 10.5 12.067 10.5 14C10.5 15.933 12.067 17.5 14 17.5Z" stroke="#060F2F" strokeWidth="2" strokeLinecap="round" strokeLinejoin="round"/>
</symbol>

<symbol id="Calendar" width="28" height="28" viewBox="0 0 28 28" fill="none">
<path d="M2.33325 14C2.33325 9.60022 2.33325 7.40035 3.70008 6.0335C5.06693 4.66667 7.26681 4.66667 11.6666 4.66667H16.3333C20.733 4.66667 22.933 4.66667 24.2997 6.0335C25.6666 7.40035 25.6666 9.60022 25.6666 14V16.3333C25.6666 20.7331 25.6666 22.9331 24.2997 24.2998C22.933 25.6667 20.733 25.6667 16.3333 25.6667H11.6666C7.26681 25.6667 5.06693 25.6667 3.70008 24.2998C2.33325 22.9331 2.33325 20.7331 2.33325 16.3333V14Z" stroke="#060F2F" strokeWidth="2"/>
<path opacity="0.5" d="M8.16675 4.66667V2.91667" stroke="#060F2F" strokeWidth="2" strokeLinecap="round"/>
<path opacity="0.5" d="M19.8333 4.66667V2.91667" stroke="#060F2F" strokeWidth="2" strokeLinecap="round"/>
<path opacity="0.5" d="M2.91675 10.5H25.0834" stroke="#060F2F" strokeWidth="2" strokeLinecap="round"/>
<path d="M21.0001 19.8333C21.0001 20.4777 20.4778 21 19.8334 21C19.1891 21 18.6667 20.4777 18.6667 19.8333C18.6667 19.189 19.1891 18.6667 19.8334 18.6667C20.4778 18.6667 21.0001 19.189 21.0001 19.8333Z" fill="#060F2F"/>
<path d="M21.0001 15.1667C21.0001 15.811 20.4778 16.3333 19.8334 16.3333C19.1891 16.3333 18.6667 15.811 18.6667 15.1667C18.6667 14.5223 19.1891 14 19.8334 14C20.4778 14 21.0001 14.5223 21.0001 15.1667Z" fill="#060F2F"/>
<path d="M15.1666 19.8333C15.1666 20.4777 14.6443 21 13.9999 21C13.3556 21 12.8333 20.4777 12.8333 19.8333C12.8333 19.189 13.3556 18.6667 13.9999 18.6667C14.6443 18.6667 15.1666 19.189 15.1666 19.8333Z" fill="#060F2F"/>
<path d="M15.1666 15.1667C15.1666 15.811 14.6443 16.3333 13.9999 16.3333C13.3556 16.3333 12.8333 15.811 12.8333 15.1667C12.8333 14.5223 13.3556 14 13.9999 14C14.6443 14 15.1666 14.5223 15.1666 15.1667Z" fill="#060F2F"/>
<path d="M9.33333 19.8333C9.33333 20.4777 8.81099 21 8.16667 21C7.52234 21 7 20.4777 7 19.8333C7 19.189 7.52234 18.6667 8.16667 18.6667C8.81099 18.6667 9.33333 19.189 9.33333 19.8333Z" fill="#060F2F"/>
<path d="M9.33333 15.1667C9.33333 15.811 8.81099 16.3333 8.16667 16.3333C7.52234 16.3333 7 15.811 7 15.1667C7 14.5223 7.52234 14 8.16667 14C8.81099 14 9.33333 14.5223 9.33333 15.1667Z" fill="#060F2F"/>
</symbol>

<symbol id="menu-burger" width="28" height="28" viewBox="0 0 28 28" fill="none">
<path d="M3.5 7H24.5M3.5 14H15.1667M3.5 21H21" stroke="#060F2F" strokeWidth="2" strokeLinecap="round" strokeLinejoin="round"/>
</symbol>

<symbol id="Filter" width="28" height="28" viewBox="0 0 28 28" fill="none">
<path d="M3.5 5.83333H8.16667M24.5 5.83333H12.8333M3.5 14H17.5M24.5 14H22.1667M3.5 22.1667H5.83333M24.5 22.1667H10.5" stroke="#060F2F" strokeWidth="2" strokeLinecap="round" strokeLinejoin="round"/>
<path d="M10.4998 8.16667C11.7885 8.16667 12.8332 7.122 12.8332 5.83333C12.8332 4.54467 11.7885 3.5 10.4998 3.5C9.21117 3.5 8.1665 4.54467 8.1665 5.83333C8.1665 7.122 9.21117 8.16667 10.4998 8.16667Z" stroke="#060F2F" strokeWidth="2" strokeLinecap="round" strokeLinejoin="round"/>
<path d="M19.8333 16.3333C21.122 16.3333 22.1667 15.2887 22.1667 14C22.1667 12.7113 21.122 11.6667 19.8333 11.6667C18.5447 11.6667 17.5 12.7113 17.5 14C17.5 15.2887 18.5447 16.3333 19.8333 16.3333Z" stroke="#060F2F" strokeWidth="2" strokeLinecap="round" strokeLinejoin="round"/>
<path d="M8.16683 24.5C9.45549 24.5 10.5002 23.4553 10.5002 22.1667C10.5002 20.878 9.45549 19.8333 8.16683 19.8333C6.87816 19.8333 5.8335 20.878 5.8335 22.1667C5.8335 23.4553 6.87816 24.5 8.16683 24.5Z" stroke="#060F2F" strokeWidth="2" strokeLinecap="round" strokeLinejoin="round"/>
</symbol>

<symbol id="Minus" width="28" height="28" viewBox="0 0 28 28" fill="none">
<path d="M23.3332 14H4.6665" stroke="#060F2F" strokeWidth="2" strokeLinecap="round" strokeLinejoin="round"/>
</symbol>

<symbol id="PLus" width="28" height="28" viewBox="0 0 28 28" fill="none">
<path d="M13.9998 23.3333V14M13.9998 14V4.66667M13.9998 14H23.3332M13.9998 14H4.6665" stroke="#060F2F" strokeWidth="2" strokeLinecap="round" strokeLinejoin="round"/>
</symbol>

<symbol id="Bell" width="28" height="28" viewBox="0 0 28 28" fill="none">
<path d="M21.874 11.3278V10.5058C21.874 5.99226 18.3486 2.33333 14 2.33333C9.65132 2.33333 6.12602 5.99226 6.12602 10.5058V11.3278C6.12602 12.3144 5.84467 13.2788 5.31743 14.0996L4.02542 16.1111C2.84529 17.9483 3.74623 20.4457 5.79875 21.0267C11.1682 22.5466 16.8318 22.5466 22.2012 21.0267C24.2538 20.4457 25.1547 17.9483 23.9745 16.1111L22.6826 14.0996C22.1553 13.2788 21.874 12.3144 21.874 11.3278Z" stroke="#060F2F" strokeWidth="2"/>
<path opacity="0.5" d="M8.75 22.1667C9.5142 24.2058 11.5762 25.6667 14 25.6667C16.4237 25.6667 18.4858 24.2058 19.25 22.1667" stroke="#060F2F" strokeWidth="2" strokeLinecap="round"/>
</symbol>

<symbol id="Notification" width="28" height="28" viewBox="0 0 28 28" fill="none">
<path opacity="0.5" d="M25.6666 12.25V14C25.6666 19.4997 25.6666 22.2496 23.958 23.9581C22.2495 25.6667 19.4996 25.6667 13.9999 25.6667C8.50019 25.6667 5.75034 25.6667 4.0418 23.9581C2.33325 22.2496 2.33325 19.4997 2.33325 14C2.33325 8.50027 2.33325 5.75041 4.0418 4.04188C5.75034 2.33333 8.50019 2.33333 13.9999 2.33333H15.7499" stroke="#060F2F" strokeWidth="2" strokeLinecap="round"/>
<path d="M22.1665 9.33333C24.0995 9.33333 25.6665 7.76632 25.6665 5.83333C25.6665 3.90033 24.0995 2.33333 22.1665 2.33333C20.2335 2.33333 18.6665 3.90033 18.6665 5.83333C18.6665 7.76632 20.2335 9.33333 22.1665 9.33333Z" stroke="#060F2F" strokeWidth="2"/>
</symbol>

<symbol id="Hleb" width="28" height="28" viewBox="0 0 28 28" fill="none">
<path d="M9.33325 7C9.33325 6.78333 9.39359 6.57095 9.50749 6.38664C9.6214 6.20234 9.78438 6.05339 9.97817 5.9565C10.172 5.8596 10.3889 5.81859 10.6047 5.83804C10.8205 5.8575 11.0266 5.93666 11.1999 6.06666L20.5333 13.0667C20.6781 13.1753 20.7958 13.3162 20.8767 13.4782C20.9577 13.6402 20.9999 13.8189 20.9999 14C20.9999 14.1811 20.9577 14.3597 20.8767 14.5217C20.7958 14.6837 20.6781 14.8247 20.5333 14.9333L11.1999 21.9333C11.0266 22.0633 10.8205 22.1425 10.6047 22.1619C10.3889 22.1814 10.172 22.1404 9.97817 22.0435C9.78438 21.9466 9.6214 21.7977 9.50749 21.6133C9.39359 21.429 9.33325 21.2167 9.33325 21V7Z" fill="#060F2F"/>
</symbol>

<symbol id="Zoom" width="28" height="28" viewBox="0 0 28 28" fill="none">
<path d="M13.4166 24.5C19.5377 24.5 24.4999 19.5378 24.4999 13.4167C24.4999 7.29551 19.5377 2.33333 13.4166 2.33333C7.29543 2.33333 2.33325 7.29551 2.33325 13.4167C2.33325 19.5378 7.29543 24.5 13.4166 24.5Z" stroke="#060F2F" stroke-opacity="0.7" strokeWidth="2"/>
<path d="M21.5833 21.5833L25.6666 25.6667" stroke="#060F2F" strokeWidth="2" strokeLinecap="round"/>
<path d="M10.5 13.4167H13.4167M13.4167 13.4167H16.3333M13.4167 13.4167V16.3333M13.4167 13.4167V10.5" stroke="#060F2F" strokeWidth="2" strokeLinecap="round"/>
</symbol>

<symbol id="Close" width="28" height="28" viewBox="0 0 28 28" fill="none">
<path d="M23.3334 23.3333L4.66675 4.66667M23.3334 4.66667L4.66675 23.3333" stroke="#060F2F" strokeWidth="2" strokeLinecap="round" strokeLinejoin="round"/>
</symbol>

<symbol id="Alt_Arrow_Up" width="28" height="28" viewBox="0 0 28 28" fill="none">
<path d="M22.1666 17.5L13.9999 10.5L5.83325 17.5" stroke="#060F2F" strokeWidth="2" strokeLinecap="round" strokeLinejoin="round"/>
</symbol>

<symbol id="Alt_Arrow_Down" width="28" height="28" viewBox="0 0 28 28" fill="none">
<path d="M22.1666 10.5L13.9999 17.5L5.83325 10.5" stroke="#060F2F" strokeWidth="2" strokeLinecap="round" strokeLinejoin="round"/>
</symbol>

<symbol id="Alt_Arrow_Left" width="28" height="28" viewBox="0 0 28 28" fill="none">
<path d="M17.5 5.83333L10.5 14L17.5 22.1667" stroke="#060F2F" strokeWidth="2" strokeLinecap="round" strokeLinejoin="round"/>
</symbol>

<symbol id="Alt_Arrow_Right" width="28" height="28" viewBox="0 0 28 28" fill="none">
<path d="M10.5 5.83333L17.5 14L10.5 22.1667" stroke="#060F2F" strokeWidth="2" strokeLinecap="round" strokeLinejoin="round"/>
</symbol>

<symbol id="Sale_Type 2" width="28" height="28" viewBox="0 0 28 28" fill="none">
<path opacity="0.5" d="M5.51648 18.8264C3.71336 17.0233 2.8118 16.1217 2.47633 14.952C2.14086 13.7823 2.42756 12.5399 3.00095 10.0552L3.33162 8.62233C3.81401 6.53194 4.05522 5.48674 4.77093 4.77101C5.48666 4.0553 6.53185 3.81409 8.62225 3.33169L10.0551 3.00103C12.5398 2.42763 13.7822 2.14094 14.9519 2.47641C16.1216 2.81187 17.0232 3.71344 18.8263 5.51656L20.9608 7.65114C24.098 10.7883 25.6666 12.3569 25.6666 14.306C25.6666 16.2552 24.098 17.8237 20.9608 20.9609C17.8237 24.0981 16.2551 25.6667 14.3059 25.6667C12.3568 25.6667 10.7882 24.0981 7.65106 20.9609L5.51648 18.8264Z" stroke="#060F2F" strokeWidth="2"/>
<path d="M17.9542 17.9539C18.6376 17.2705 18.7299 16.2548 18.1604 15.6852C17.5909 15.1158 16.5752 15.2081 15.8917 15.8915C15.2084 16.5749 14.1927 16.6673 13.6232 16.0978C13.0536 15.5282 13.146 14.5125 13.8294 13.8292M17.9542 17.9539L18.3667 18.3664M17.9542 17.9539C17.4863 18.4218 16.8629 18.6126 16.3333 18.5038M13.8294 13.8292L13.4169 13.4167M13.8294 13.8292C14.2158 13.4427 14.7085 13.2453 15.1667 13.2496" stroke="#060F2F" strokeWidth="2" strokeLinecap="round"/>
<path d="M11.6914 12.0086C12.6027 11.0974 12.6027 9.62004 11.6914 8.70882C10.7802 7.7976 9.30284 7.7976 8.39161 8.70882C7.48039 9.62004 7.48039 11.0974 8.39161 12.0086C9.30284 12.9199 10.7802 12.9199 11.6914 12.0086Z" stroke="#060F2F" strokeWidth="2"/>
</symbol>

<symbol id="Price_Down" width="28" height="28" viewBox="0 0 28 28" fill="none">
<path opacity="0.5" d="M2.33325 14C2.33325 8.50027 2.33325 5.75041 4.0418 4.04188C5.75034 2.33333 8.50019 2.33333 13.9999 2.33333C19.4996 2.33333 22.2495 2.33333 23.958 4.04188C25.6666 5.75041 25.6666 8.50027 25.6666 14C25.6666 19.4997 25.6666 22.2496 23.958 23.9581C22.2495 25.6667 19.4996 25.6667 13.9999 25.6667C8.50019 25.6667 5.75034 25.6667 4.0418 23.9581C2.33325 22.2496 2.33325 19.4997 2.33325 14Z" stroke="#060F2F" strokeWidth="2"/>
<path d="M10.5 9.91667L14 13.4167L17.5 9.91667" stroke="#060F2F" strokeWidth="2" strokeLinecap="round" strokeLinejoin="round"/>
<path d="M10.5 14.5833L14 18.0833L17.5 14.5833" stroke="#060F2F" strokeWidth="2" strokeLinecap="round" strokeLinejoin="round"/>
</symbol>

<symbol id="Sale_Type 1" width="28" height="28" viewBox="0 0 28 28" fill="none">
<path opacity="0.5" d="M11.4116 4.53865C12.0694 3.97803 12.3983 3.69773 12.7422 3.53336C13.5377 3.15317 14.4624 3.15317 15.2578 3.53336C15.6017 3.69773 15.9306 3.97803 16.5885 4.53865C16.8503 4.76178 16.9812 4.87335 17.1211 4.96705C17.4416 5.18187 17.8015 5.33096 18.1799 5.40568C18.3451 5.43829 18.5165 5.45198 18.8595 5.47934C19.7211 5.54809 20.1518 5.58247 20.5113 5.70941C21.3425 6.00304 21.9965 6.6569 22.2901 7.48818C22.417 7.8476 22.4513 8.27839 22.5202 9.13997C22.5475 9.48289 22.5611 9.65435 22.5938 9.81948C22.6684 10.198 22.8175 10.5579 23.0324 10.8784C23.1261 11.0182 23.2377 11.1492 23.4609 11.411C24.0214 12.0688 24.3018 12.3978 24.4662 12.7416C24.8463 13.5371 24.8463 14.4618 24.4662 15.2572C24.3018 15.6011 24.0214 15.93 23.4609 16.5879C23.2377 16.8497 23.1261 16.9806 23.0324 17.1205C22.8175 17.441 22.6684 17.8009 22.5938 18.1795C22.5611 18.3446 22.5475 18.5161 22.5202 18.8589C22.4513 19.7205 22.417 20.1513 22.2901 20.5107C21.9965 21.342 21.3425 21.9959 20.5113 22.2895C20.1518 22.4165 19.7211 22.4508 18.8595 22.5196C18.5165 22.5469 18.3451 22.5607 18.1799 22.5932C17.8015 22.668 17.4416 22.817 17.1211 23.0319C16.9812 23.1256 16.8503 23.2371 16.5885 23.4603C15.9306 24.0209 15.6017 24.3012 15.2578 24.4656C14.4624 24.8457 13.5377 24.8457 12.7422 24.4656C12.3983 24.3012 12.0694 24.0209 11.4116 23.4603C11.1497 23.2371 11.0188 23.1256 10.879 23.0319C10.5585 22.817 10.1986 22.668 9.82004 22.5932C9.65491 22.5607 9.48346 22.5469 9.14054 22.5196C8.27896 22.4508 7.84816 22.4165 7.48875 22.2895C6.65747 21.9959 6.0036 21.342 5.70998 20.5107C5.58304 20.1513 5.54866 19.7205 5.4799 18.8589C5.45253 18.5161 5.43886 18.3446 5.40625 18.1795C5.33153 17.8009 5.18244 17.441 4.96762 17.1205C4.87391 16.9806 4.76235 16.8497 4.53922 16.5879C3.9786 15.93 3.6983 15.6011 3.53392 15.2572C3.15373 14.4618 3.15373 13.5371 3.53392 12.7416C3.6983 12.3977 3.9786 12.0688 4.53922 11.411C4.76235 11.1492 4.87391 11.0182 4.96762 10.8784C5.18244 10.5579 5.33153 10.198 5.40625 9.81948C5.43886 9.65435 5.45253 9.48289 5.4799 9.13997C5.54866 8.27839 5.58304 7.8476 5.70998 7.48818C6.0036 6.6569 6.65747 6.00304 7.48875 5.70941C7.84816 5.58247 8.27896 5.54809 9.14054 5.47934C9.48346 5.45198 9.65491 5.43829 9.82004 5.40568C10.1986 5.33096 10.5585 5.18187 10.879 4.96705C11.0188 4.87335 11.1497 4.76178 11.4116 4.53865Z" stroke="#060F2F" strokeWidth="2"/>
<path d="M10.5 17.5L17.5 10.5" stroke="#060F2F" strokeWidth="2" strokeLinecap="round"/>
<path d="M18.0833 16.9167C18.0833 17.561 17.561 18.0833 16.9167 18.0833C16.2723 18.0833 15.75 17.561 15.75 16.9167C15.75 16.2723 16.2723 15.75 16.9167 15.75C17.561 15.75 18.0833 16.2723 18.0833 16.9167Z" fill="#060F2F"/>
<path d="M12.2501 11.0833C12.2501 11.7277 11.7278 12.25 11.0834 12.25C10.4391 12.25 9.91675 11.7277 9.91675 11.0833C9.91675 10.439 10.4391 9.91667 11.0834 9.91667C11.7278 9.91667 12.2501 10.439 12.2501 11.0833Z" fill="#060F2F"/>
</symbol>

<symbol id="Search_type 2" width="28" height="28" viewBox="0 0 28 28" fill="none">
<path d="M13.4166 24.5C19.5377 24.5 24.4999 19.5378 24.4999 13.4167C24.4999 7.29551 19.5377 2.33333 13.4166 2.33333C7.29543 2.33333 2.33325 7.29551 2.33325 13.4167C2.33325 19.5378 7.29543 24.5 13.4166 24.5Z" stroke="#060F2F" stroke-opacity="0.7" strokeWidth="2"/>
<path d="M23.3333 23.3333L25.6666 25.6667" stroke="#060F2F" strokeWidth="2" strokeLinecap="round"/>
</symbol>

<symbol id="Search_type 1" width="28" height="28" viewBox="0 0 28 28" fill="none">
<path d="M13.4166 24.5C19.5377 24.5 24.4999 19.5378 24.4999 13.4167C24.4999 7.29551 19.5377 2.33333 13.4166 2.33333C7.29543 2.33333 2.33325 7.29551 2.33325 13.4167C2.33325 19.5378 7.29543 24.5 13.4166 24.5Z" stroke="#060F2F" stroke-opacity="0.7" strokeWidth="2"/>
<path d="M21.5833 21.5833L25.6666 25.6667" stroke="#060F2F" strokeWidth="2" strokeLinecap="round"/>
</symbol>

<symbol id="Fire" width="28" height="28" viewBox="0 0 28 28" fill="none">
<path d="M23.3333 15.2963C23.3333 23.5926 16.2815 25.6667 12.7555 25.6667C9.67037 25.6667 3.5 23.5926 3.5 15.2963C3.5 12.0511 5.20505 9.87161 6.83662 8.62696C7.74481 7.93414 8.90213 8.62397 9.01853 9.76031L9.11867 10.7378C9.24061 11.9281 10.3242 12.904 11.3275 12.252C13.2928 10.9749 14 7.9044 14 6.22223V5.84466C14 4.17667 15.6844 3.10316 17.036 4.08062C20.0262 6.24315 23.3333 10.015 23.3333 15.2963Z" stroke="#060F2F" strokeWidth="2"/>
<path opacity="0.5" d="M9.33325 21.5186C9.33325 24.8371 12.237 25.6667 13.6888 25.6667C14.9592 25.6667 17.4999 24.8371 17.4999 21.5186C17.4999 20.2341 16.8124 19.3669 16.1471 18.8665C15.6827 18.5173 15.0299 18.8309 14.8701 19.3895C14.662 20.1177 13.9099 20.5753 13.5267 19.9219C13.1764 19.3244 13.1764 18.4283 13.1764 17.889C13.1764 17.1463 12.4295 16.6655 11.8286 17.1021C10.6242 17.9773 9.33325 19.4618 9.33325 21.5186Z" stroke="#060F2F" strokeWidth="2"/>
</symbol>

<symbol id="Bag" width="28" height="28" viewBox="0 0 28 28" fill="none">
<path d="M4.42669 14.0339C5.05339 10.9005 5.36673 9.33375 6.40212 8.32467C6.59348 8.13816 6.80051 7.96845 7.02092 7.81738C8.21346 7 9.81123 7 13.0068 7H14.9935C18.1891 7 19.7869 7 20.9794 7.81738C21.1998 7.96845 21.4068 8.13816 21.5982 8.32467C22.6335 9.33375 22.9469 10.9005 23.5736 14.0339C24.4734 18.5326 24.9232 20.7819 23.8876 22.3758C23.7001 22.6645 23.4812 22.9314 23.2351 23.1719C21.8752 24.5 19.5813 24.5 14.9935 24.5H13.0068C8.419 24.5 6.12513 24.5 4.76529 23.1719C4.51907 22.9314 4.3002 22.6645 4.1127 22.3758C3.07709 20.7819 3.52696 18.5326 4.42669 14.0339Z" stroke="#060F2F" strokeWidth="2"/>
<path opacity="0.7" d="M17.4999 11.6667C18.1443 11.6667 18.6666 11.1443 18.6666 10.5C18.6666 9.85566 18.1443 9.33333 17.4999 9.33333C16.8556 9.33333 16.3333 9.85566 16.3333 10.5C16.3333 11.1443 16.8556 11.6667 17.4999 11.6667Z" fill="#060F2F"/>
<path opacity="0.7" d="M10.4999 11.6667C11.1443 11.6667 11.6666 11.1443 11.6666 10.5C11.6666 9.85566 11.1443 9.33333 10.4999 9.33333C9.85559 9.33333 9.33325 9.85566 9.33325 10.5C9.33325 11.1443 9.85559 11.6667 10.4999 11.6667Z" fill="#060F2F"/>
<path opacity="0.7" d="M10.5 6.99999V5.83333C10.5 3.90034 12.0669 2.33333 14 2.33333C15.933 2.33333 17.5 3.90034 17.5 5.83333V6.99999" stroke="#060F2F" strokeWidth="2" strokeLinecap="round"/>
</symbol>

<symbol id="Profile" width="28" height="28" viewBox="0 0 28 28" fill="none">
<path d="M13.9999 11.6667C16.5772 11.6667 18.6666 9.57732 18.6666 6.99999C18.6666 4.42267 16.5772 2.33333 13.9999 2.33333C11.4226 2.33333 9.33325 4.42267 9.33325 6.99999C9.33325 9.57732 11.4226 11.6667 13.9999 11.6667Z" stroke="#060F2F" strokeWidth="2"/>
<path opacity="0.7" d="M23.3334 20.4167C23.3334 23.3162 23.3334 25.6667 14.0001 25.6667C4.66675 25.6667 4.66675 23.3162 4.66675 20.4167C4.66675 17.5172 8.84542 15.1667 14.0001 15.1667C19.1548 15.1667 23.3334 17.5172 23.3334 20.4167Z" stroke="#060F2F" strokeWidth="2"/>
</symbol>

<symbol id="Heart" width="28" height="28" viewBox="0 0 28 28" fill="none">
<path opacity="0.7" d="M14 6.41782L16.3333 8.75047" stroke="#060F2F" strokeWidth="2" strokeLinecap="round"/>
<path d="M13.9999 6.4174L13.3695 7.02419C13.5344 7.19557 13.762 7.2924 13.9999 7.2924C14.2378 7.2924 14.4654 7.19557 14.6304 7.02419L13.9999 6.4174ZM10.997 21.3756C9.22871 19.9816 7.29517 18.6204 5.76126 16.8931C4.25734 15.1996 3.20825 13.2236 3.20825 10.66H1.45825C1.45825 13.7697 2.75384 16.1421 4.45276 18.0551C6.12169 19.9344 8.24915 21.4377 9.91358 22.7499L10.997 21.3756ZM3.20825 10.66C3.20825 8.15061 4.62618 6.04628 6.56167 5.16156C8.442 4.30206 10.9685 4.52968 13.3695 7.02419L14.6304 5.81062C11.7815 2.85078 8.47469 2.36296 5.83414 3.56996C3.24875 4.75174 1.45825 7.49587 1.45825 10.66H3.20825ZM9.91358 22.7499C10.5112 23.221 11.1527 23.7234 11.8029 24.1032C12.4528 24.483 13.1945 24.7917 13.9999 24.7917V23.0417C13.6387 23.0417 13.2137 22.9009 12.6858 22.5923C12.1581 22.2839 11.6107 21.8594 10.997 21.3756L9.91358 22.7499ZM18.0863 22.7499C19.7507 21.4377 21.8782 19.9344 23.5471 18.0551C25.246 16.1421 26.5416 13.7697 26.5416 10.66H24.7916C24.7916 13.2236 23.7425 15.1996 22.2386 16.8931C20.7046 18.6204 18.7711 19.9816 17.0029 21.3756L18.0863 22.7499ZM26.5416 10.66C26.5416 7.49587 24.7511 4.75174 22.1657 3.56996C19.5251 2.36296 16.2183 2.85078 13.3695 5.81062L14.6304 7.02419C17.0313 4.52968 19.5578 4.30206 21.4381 5.16156C23.3736 6.04628 24.7916 8.15061 24.7916 10.66H26.5416ZM17.0029 21.3756C16.3891 21.8594 15.8417 22.2839 15.3141 22.5923C14.7861 22.9009 14.3611 23.0417 13.9999 23.0417V24.7917C14.8054 24.7917 15.547 24.483 16.197 24.1032C16.8472 23.7234 17.4886 23.221 18.0863 22.7499L17.0029 21.3756Z" fill="#060F2F"/>
</symbol>

</svg>
