<svg width="20" height="20" viewBox="0 0 20 20" fill="none" xmlns="http://www.w3.org/2000/svg">
<path d="M8.99683 13.75L6.05933 10.8125C6.05933 10.8125 9.92495 1.69062 17.7406 2.18749C17.7406 2.18749 18.8281 9.41249 8.99683 13.75Z" stroke="white"/>
<path d="M17.5 5.25626C16.7887 5.14234 16.1321 4.80528 15.625 4.29376C15.1035 3.77378 14.7628 3.10008 14.6531 2.37189" stroke="white"/>
<path opacity="0.5" d="M13.225 8.41249C14.1707 8.41249 14.9375 7.64578 14.9375 6.69999C14.9375 5.7542 14.1707 4.98749 13.225 4.98749C12.2792 4.98749 11.5125 5.7542 11.5125 6.69999C11.5125 7.64578 12.2792 8.41249 13.225 8.41249Z" stroke="white"/>
<path d="M9.56566 13.4875L9.37503 14.95C9.37349 14.963 9.37538 14.9761 9.3805 14.9882C9.38562 15.0002 9.3938 15.0107 9.40422 15.0186C9.41465 15.0265 9.42695 15.0315 9.43992 15.0332C9.45289 15.0348 9.46607 15.0331 9.47816 15.0281L11.9782 13.9437C12.0806 13.8967 12.1706 13.8265 12.2411 13.7386C12.3116 13.6507 12.3607 13.5476 12.3844 13.4375L12.7657 11.6156" stroke="white"/>
<path d="M6.24997 10.4031L4.78435 10.5906C4.77175 10.5922 4.75895 10.5905 4.74725 10.5855C4.73555 10.5806 4.72537 10.5726 4.71774 10.5625C4.71012 10.5523 4.70533 10.5403 4.70386 10.5277C4.70238 10.5151 4.70428 10.5023 4.70935 10.4906L5.7906 8.00625C5.83737 7.89923 5.90921 7.80503 6.00004 7.73161C6.09087 7.65818 6.19803 7.60768 6.31247 7.58438L8.13122 7.20312" stroke="white"/>
<path opacity="0.5" d="M6.71567 11.4625C4.6688 12.1188 4.56567 15.3594 4.56567 15.3594C4.56567 15.3594 7.71567 15.3938 8.50005 13.2469" stroke="white"/>
<path d="M3.4001 16.5062L2.2251 17.6843" stroke="white" stroke-linecap="round"/>
<path d="M3.31255 14.2594L2.31567 15.2531" stroke="white" stroke-linecap="round"/>
<path d="M5.6063 16.5969L4.61255 17.5937" stroke="white" stroke-linecap="round"/>
</svg>
