<svg width="20" height="20" viewBox="0 0 20 20" fill="none" xmlns="http://www.w3.org/2000/svg">
<path d="M16.6667 10.9259C16.6667 16.8518 11.6297 18.3333 9.11108 18.3333C6.90741 18.3333 2.5 16.8518 2.5 10.9259C2.5 8.60792 3.71789 7.05115 4.8833 6.16212C5.53201 5.66724 6.35867 6.15998 6.44181 6.97165L6.51333 7.66985C6.60043 8.52008 7.37443 9.21717 8.0911 8.75142C9.49483 7.83921 10 5.646 10 4.44445V4.17476C10 2.98333 11.2032 2.21654 12.1686 2.91473C14.3044 4.45939 16.6667 7.15356 16.6667 10.9259Z" stroke="white" stroke-width="2"/>
<path opacity="0.5" d="M6.66675 15.3704C6.66675 17.7408 8.74083 18.3333 9.77783 18.3333C10.6852 18.3333 12.5001 17.7408 12.5001 15.3704C12.5001 14.4529 12.009 13.8335 11.5337 13.4761C11.2021 13.2267 10.7357 13.4507 10.6217 13.8497C10.473 14.3698 9.93575 14.6967 9.66208 14.2299C9.41183 13.8032 9.41183 13.1631 9.41183 12.7778C9.41183 12.2473 8.87833 11.9039 8.44916 12.2158C7.58882 12.8409 6.66675 13.9013 6.66675 15.3704Z" stroke="white" stroke-width="2"/>
</svg>
