<svg width="20" height="20" viewBox="0 0 20 20" fill="none" xmlns="http://www.w3.org/2000/svg">
<path d="M8.15111 3.24187C8.621 2.84143 8.85592 2.64121 9.10158 2.5238C9.66975 2.25224 10.3303 2.25224 10.8984 2.5238C11.1441 2.64121 11.379 2.84143 11.8489 3.24187C12.0359 3.40125 12.1294 3.48094 12.2293 3.54787C12.4583 3.70131 12.7153 3.8078 12.9857 3.86118C13.1037 3.88447 13.2261 3.89425 13.4711 3.91379C14.0865 3.9629 14.3942 3.98745 14.6509 4.07813C15.2447 4.28786 15.7118 4.7549 15.9215 5.34868C16.0122 5.6054 16.0367 5.91311 16.0858 6.52853C16.1053 6.77347 16.1151 6.89594 16.1384 7.01389C16.1917 7.28426 16.2982 7.54135 16.4517 7.77029C16.5187 7.87015 16.5983 7.96366 16.7578 8.15068C17.1582 8.62056 17.3584 8.85556 17.4758 9.10115C17.7473 9.66931 17.7473 10.3298 17.4758 10.898C17.3584 11.1436 17.1582 11.3786 16.7578 11.8485C16.5983 12.0355 16.5187 12.129 16.4517 12.2289C16.2982 12.4578 16.1917 12.7149 16.1384 12.9853C16.1151 13.1032 16.1053 13.2257 16.0858 13.4706C16.0367 14.0861 16.0122 14.3937 15.9215 14.6505C15.7118 15.2442 15.2447 15.7113 14.6509 15.9211C14.3942 16.0117 14.0865 16.0362 13.4711 16.0854C13.2261 16.1049 13.1037 16.1147 12.9857 16.138C12.7153 16.1914 12.4583 16.2978 12.2293 16.4513C12.1294 16.5182 12.0359 16.5979 11.8489 16.7573C11.379 17.1577 11.1441 17.358 10.8984 17.4754C10.3303 17.7469 9.66975 17.7469 9.10158 17.4754C8.85592 17.358 8.621 17.1577 8.15111 16.7573C7.96409 16.5979 7.87058 16.5182 7.77071 16.4513C7.54178 16.2978 7.28469 16.1914 7.01432 16.138C6.89637 16.1147 6.7739 16.1049 6.52896 16.0854C5.91354 16.0362 5.60583 16.0117 5.34911 15.9211C4.75533 15.7113 4.28828 15.2442 4.07856 14.6505C3.98788 14.3937 3.96333 14.0861 3.91422 13.4706C3.89467 13.2257 3.8849 13.1032 3.86161 12.9853C3.80823 12.7149 3.70174 12.4578 3.5483 12.2289C3.48137 12.129 3.40168 12.0355 3.2423 11.8485C2.84186 11.3786 2.64164 11.1436 2.52423 10.898C2.25267 10.3298 2.25267 9.66931 2.52423 9.10115C2.64164 8.85548 2.84186 8.62056 3.2423 8.15068C3.40168 7.96366 3.48137 7.87015 3.5483 7.77029C3.70174 7.54135 3.80823 7.28426 3.86161 7.01389C3.8849 6.89594 3.89467 6.77347 3.91422 6.52853C3.96333 5.91311 3.98788 5.6054 4.07856 5.34868C4.28828 4.7549 4.75533 4.28786 5.34911 4.07813C5.60583 3.98745 5.91354 3.9629 6.52896 3.91379C6.7739 3.89425 6.89637 3.88447 7.01432 3.86118C7.28469 3.8078 7.54178 3.70131 7.77071 3.54787C7.87058 3.48094 7.96409 3.40125 8.15111 3.24187Z" stroke="white" stroke-width="2"/>
<path opacity="0.5" d="M7.5 12.5L12.5 7.5" stroke="white" stroke-width="2" stroke-linecap="round"/>
<path opacity="0.5" d="M12.9167 12.0833C12.9167 12.5436 12.5436 12.9167 12.0833 12.9167C11.6231 12.9167 11.25 12.5436 11.25 12.0833C11.25 11.6231 11.6231 11.25 12.0833 11.25C12.5436 11.25 12.9167 11.6231 12.9167 12.0833Z" fill="white"/>
<path opacity="0.5" d="M8.74992 7.91665C8.74992 8.3769 8.37684 8.74998 7.91659 8.74998C7.45635 8.74998 7.08325 8.3769 7.08325 7.91665C7.08325 7.45641 7.45635 7.08331 7.91659 7.08331C8.37684 7.08331 8.74992 7.45641 8.74992 7.91665Z" fill="white"/>
</svg>
