<svg width="287" height="130" viewBox="0 0 287 130" fill="none" xmlns="http://www.w3.org/2000/svg">
<path d="M22.9824 23.0809H264.018V25.7007H22.9824V23.0809ZM22.9824 23.0809H25.591V85.6829H22.9824V23.0809ZM264.018 85.6829H22.9824V83.0632H264.018V85.6829ZM264.018 85.6829H261.409V23.0809H264.018V85.6829Z" fill="white"/>
<path d="M60.1816 73.93V65.4053H45.2134V34.833H34.6851V73.93H60.1816ZM76.9862 73.93V34.833H66.4266V73.93H76.9862ZM120.086 56.7864V73.93H129.758V34.833H115.708L107.752 62.5813H107.543L99.4411 34.833H85.4172V73.93H94.7352V56.9645C94.7352 54.1562 94.5473 50.4204 94.1717 45.7678H94.4117L102.368 73.93H112.395L120.237 45.8254H120.472C120.216 50.8763 120.086 54.5282 120.086 56.7864ZM148.692 73.93V34.833H138.132V73.93H148.692ZM174.308 43.4781H183.777V34.833H154.284V43.4781H163.78V73.93H174.308V43.4781ZM212.441 65.3163H199.867V57.9496H211.522V49.4826H199.867V43.3314H212.441V34.833H189.339V73.93H212.441V65.3163ZM232.141 65.2534H229.809V43.3576H232.856C235.73 43.3576 237.88 44.2274 239.288 45.9617C240.697 47.6907 241.401 50.4152 241.401 54.13C241.401 57.8448 240.655 60.6269 239.153 62.4765C237.655 64.3312 235.318 65.2534 232.141 65.2534ZM252.316 53.5484C252.316 47.4916 250.615 42.8546 247.213 39.6481C243.812 36.4363 238.996 34.833 232.767 34.833H219.275V73.93H231.875C238.344 73.93 243.368 72.1643 246.947 68.6276C250.526 65.091 252.316 60.0663 252.316 53.5484Z" fill="white"/>
<path d="M38.2067 106.738V102.379L39.2501 101.755L41.8118 106.738H45.7664L41.7544 99.5492L45.8342 93.7072H42.01L39.2814 97.6944C38.7597 98.4227 38.3997 98.9781 38.2067 99.3711V93.7072H34.6851V106.738H38.2067ZM92.1996 106.738V93.7072H88.678V106.738H92.1996ZM145.28 97.2124L146.354 94.4407C145.086 93.8225 143.746 93.5186 142.337 93.5186C141.069 93.5029 139.958 93.7753 138.998 94.3359C138.038 94.8913 137.302 95.6825 136.791 96.7094C136.285 97.7364 136.035 98.9205 136.05 100.262C136.05 102.415 136.567 104.06 137.605 105.203C138.654 106.345 140.156 106.916 142.113 106.916C143.485 106.916 144.711 106.675 145.791 106.193V103.222C144.46 103.762 143.365 104.034 142.499 104.034C140.6 104.034 139.645 102.782 139.645 100.283C139.645 99.0724 139.88 98.1241 140.349 97.4377C140.814 96.7513 141.471 96.4108 142.311 96.4108C143.151 96.4108 144.142 96.678 145.28 97.2124ZM193.346 106.738V102.379L194.394 101.755L196.956 106.738H200.911L196.899 99.5492L200.978 93.7072H197.154L194.42 97.6944C193.904 98.4227 193.544 98.9781 193.346 99.3711V93.7072H189.829V106.738H193.346ZM243.222 102.955V106.093C243.827 106.387 244.427 106.596 245.022 106.722C245.617 106.853 246.347 106.916 247.224 106.916C248.758 106.932 249.989 106.549 250.928 105.779C251.862 105.004 252.326 104.003 252.311 102.777C252.311 101.891 252.091 101.168 251.653 100.597C251.22 100.016 250.432 99.4654 249.295 98.9467C248.158 98.4332 247.453 98.0717 247.187 97.8674C246.921 97.6578 246.791 97.4325 246.791 97.1757C246.791 96.9242 246.9 96.7199 247.114 96.568C247.333 96.416 247.657 96.3374 248.09 96.3374C248.977 96.3374 250.025 96.6151 251.236 97.1705L252.311 94.4565C250.907 93.833 249.535 93.5186 248.199 93.5186C246.681 93.5186 245.486 93.8539 244.61 94.5298C243.744 95.2005 243.311 96.1436 243.311 97.3591C243.311 98.5747 243.723 99.5387 244.553 100.251C244.954 100.597 245.612 100.98 246.535 101.399C247.453 101.823 248.012 102.101 248.205 102.227C248.398 102.358 248.549 102.489 248.653 102.62C248.752 102.751 248.799 102.908 248.799 103.086C248.799 103.379 248.674 103.615 248.424 103.793C248.168 103.966 247.766 104.055 247.219 104.055C246.671 104.055 246.04 103.961 245.33 103.777C244.62 103.594 243.916 103.316 243.222 102.955Z" fill="white"/>
</svg>
