<svg width="151" height="70" viewBox="0 0 151 70" fill="none" xmlns="http://www.w3.org/2000/svg">
<g id="Transparent 1">
<path id="Vector" d="M12.0918 13.0477H138.908V14.4196H12.0918V13.0477ZM12.0918 13.0477H13.4643V45.8309H12.0918V13.0477ZM138.908 45.8309H12.0918V44.459H138.908V45.8309ZM138.908 45.8309H137.536V13.0477H138.908V45.8309Z" fill="#232323"/>
<path id="Vector_2" d="M31.6636 39.6764V35.2123H23.7883V19.2023H18.249V39.6764H31.6636ZM40.505 39.6764V19.2023H34.9493V39.6764H40.505ZM63.181 30.6988V39.6764H68.2701V19.2023H60.878L56.692 33.7334H56.5822L52.3193 19.2023H44.9409V39.6764H49.8433V30.792C49.8433 29.3214 49.7445 27.365 49.5469 24.9286H49.6731L53.8592 39.6764H59.135L63.2606 24.9587H63.3841C63.2496 27.6038 63.181 29.5162 63.181 30.6988ZM78.2315 39.6764V19.2023H72.6758V39.6764H78.2315ZM91.7092 23.7295H96.6913V19.2023H81.1741V23.7295H86.1699V39.6764H91.7092V23.7295ZM111.772 35.1656H105.157V31.3079H111.289V26.8739H105.157V23.6527H111.772V19.2023H99.6174V39.6764H111.772V35.1656ZM122.137 35.1327H120.91V23.6664H122.513C124.025 23.6664 125.156 24.1219 125.897 25.0301C126.639 25.9355 127.009 27.3623 127.009 29.3077C127.009 31.253 126.617 32.71 125.826 33.6785C125.038 34.6498 123.809 35.1327 122.137 35.1327ZM132.752 29.0031C132.752 25.8313 131.857 23.403 130.067 21.7238C128.277 20.0419 125.744 19.2023 122.466 19.2023H115.368V39.6764H121.997C125.401 39.6764 128.044 38.7518 129.927 36.8997C131.81 35.0477 132.752 32.4164 132.752 29.0031Z" fill="#232323"/>
<path id="Vector_3" d="M20.1019 56.857V54.5742L20.6508 54.2477L21.9986 56.857H24.0793L21.9684 53.0925L24.115 50.0332H22.1029L20.6673 52.1212C20.3928 52.5026 20.2034 52.7934 20.1019 52.9992V50.0332H18.249V56.857H20.1019ZM48.5093 56.857V50.0332H46.6564V56.857H48.5093ZM76.4363 51.8688L77.0018 50.4173C76.3348 50.0936 75.6293 49.9344 74.8882 49.9344C74.2212 49.9262 73.6365 50.0689 73.1314 50.3624C72.6264 50.6533 72.2393 51.0676 71.9703 51.6054C71.7041 52.1432 71.5723 52.7633 71.5805 53.4657C71.5805 54.5934 71.8523 55.4549 72.3985 56.0531C72.9503 56.6512 73.7408 56.9503 74.7702 56.9503C75.4921 56.9503 76.1371 56.8241 76.7053 56.5716V55.0159C76.0054 55.2985 75.429 55.4412 74.9733 55.4412C73.9741 55.4412 73.4718 54.7854 73.4718 53.4767C73.4718 52.8428 73.5953 52.3462 73.8424 51.9868C74.0867 51.6273 74.4325 51.449 74.8745 51.449C75.3164 51.449 75.8379 51.5889 76.4363 51.8688ZM101.726 56.857V54.5742L102.277 54.2477L103.625 56.857H105.706L103.595 53.0925L105.741 50.0332H103.729L102.291 52.1212C102.019 52.5026 101.83 52.7934 101.726 52.9992V50.0332H99.8754V56.857H101.726ZM127.967 54.876V56.5195C128.286 56.6732 128.601 56.7829 128.914 56.8488C129.227 56.9174 129.611 56.9503 130.073 56.9503C130.88 56.9585 131.527 56.7582 132.021 56.3549C132.513 55.9488 132.757 55.4247 132.749 54.7827C132.749 54.319 132.634 53.9404 132.403 53.6413C132.175 53.3367 131.761 53.0486 131.162 52.777C130.564 52.5081 130.193 52.3188 130.053 52.2118C129.913 52.102 129.845 51.984 129.845 51.8496C129.845 51.7179 129.902 51.6109 130.015 51.5313C130.13 51.4517 130.3 51.4106 130.528 51.4106C130.995 51.4106 131.547 51.556 132.183 51.8468L132.749 50.4256C132.01 50.099 131.289 49.9344 130.586 49.9344C129.787 49.9344 129.158 50.11 128.697 50.464C128.242 50.8152 128.014 51.3091 128.014 51.9456C128.014 52.5822 128.231 53.087 128.667 53.4602C128.878 53.6413 129.224 53.8416 129.71 54.0611C130.193 54.2833 130.487 54.4287 130.589 54.4946C130.69 54.5632 130.77 54.6318 130.825 54.7004C130.877 54.769 130.902 54.8513 130.902 54.9446C130.902 55.0982 130.836 55.2217 130.704 55.315C130.569 55.4055 130.358 55.4522 130.07 55.4522C129.782 55.4522 129.449 55.4028 129.076 55.3068C128.703 55.2107 128.332 55.0653 127.967 54.876Z" fill="#232323"/>
</g>
</svg>
