<svg width="80" height="26" viewBox="0 0 80 26" fill="none" xmlns="http://www.w3.org/2000/svg">
<path d="M16.856 13.16L17.368 12.072C19.224 12.1147 20.76 12.4133 21.976 12.968C23.192 13.5013 24.088 14.2373 24.664 15.176C25.24 16.0933 25.528 17.1493 25.528 18.344C25.528 19.624 25.2187 20.7653 24.6 21.768C24.0027 22.7707 23.1173 23.56 21.944 24.136C20.7707 24.712 19.2987 25 17.528 25H0.696L2.552 12.68L0.696 0.999998H16.92C19.1387 0.999998 20.856 1.52267 22.072 2.568C23.3093 3.592 23.928 5.01067 23.928 6.824C23.928 7.80533 23.6933 8.75467 23.224 9.672C22.776 10.5893 22.0293 11.368 20.984 12.008C19.96 12.6267 18.584 13.0107 16.856 13.16ZM6.072 23.624L3.992 21H16.408C17.56 21 18.4453 20.7333 19.064 20.2C19.704 19.6453 20.024 18.8773 20.024 17.896C20.024 16.8933 19.6613 16.104 18.936 15.528C18.2107 14.9307 17.144 14.632 15.736 14.632H5.624V10.728H15.096C16.056 10.728 16.8453 10.4613 17.464 9.928C18.104 9.37333 18.424 8.60533 18.424 7.624C18.424 6.87733 18.1573 6.25867 17.624 5.768C17.0907 5.256 16.3227 5 15.32 5H3.992L6.072 2.376L7.768 12.68L6.072 23.624ZM55.1043 15.24C54.8696 17.2667 54.1549 19.0587 52.9603 20.616C51.7869 22.152 50.2296 23.3467 48.2883 24.2C46.3683 25.0533 44.1709 25.48 41.6963 25.48C38.9656 25.48 36.5656 24.9573 34.4963 23.912C32.4483 22.8667 30.8483 21.416 29.6963 19.56C28.5443 17.6827 27.9683 15.496 27.9683 13C27.9683 10.504 28.5443 8.328 29.6963 6.472C30.8483 4.59466 32.4483 3.13333 34.4963 2.088C36.5656 1.04267 38.9656 0.519999 41.6963 0.519999C44.1709 0.519999 46.3683 0.946665 48.2883 1.8C50.2296 2.65333 51.7869 3.848 52.9603 5.384C54.1549 6.92 54.8696 8.712 55.1043 10.76H49.6323C49.4189 9.62933 48.9603 8.65867 48.2563 7.848C47.5523 7.016 46.6456 6.376 45.5363 5.928C44.4269 5.48 43.1363 5.256 41.6643 5.256C39.9789 5.256 38.5176 5.576 37.2803 6.216C36.0643 6.83467 35.1256 7.73067 34.4643 8.904C33.8029 10.056 33.4723 11.4213 33.4723 13C33.4723 14.5787 33.8029 15.9547 34.4643 17.128C35.1256 18.28 36.0643 19.176 37.2803 19.816C38.5176 20.4347 39.9789 20.744 41.6643 20.744C43.1363 20.744 44.4269 20.5307 45.5363 20.104C46.6456 19.656 47.5523 19.0267 48.2563 18.216C48.9603 17.384 49.4189 16.392 49.6323 15.24H55.1043ZM78.429 10.92V15.08H61.245V10.92H78.429ZM64.893 13L63.293 23.176L60.925 20.488H79.421V25H57.821L59.677 13L57.821 0.999998H79.261V5.512H60.925L63.293 2.824L64.893 13Z" fill="#060F2F"/>
</svg>
