<svg width="101" height="100" viewBox="0 0 101 100" fill="none" xmlns="http://www.w3.org/2000/svg">
<path d="M41.2249 40.625V92.1875C41.2178 92.805 41.3343 93.4178 41.5673 93.9897C41.8004 94.5616 42.1454 95.0811 42.5821 95.5178C43.0188 95.9545 43.5384 96.2995 44.1103 96.5326C44.6822 96.7656 45.2949 96.8821 45.9124 96.875C46.5299 96.8821 47.1427 96.7656 47.7146 96.5326C48.2865 96.2995 48.806 95.9545 49.2427 95.5178C49.6794 95.0811 50.0244 94.5616 50.2575 93.9897C50.4906 93.4178 50.607 92.805 50.5999 92.1875" stroke="black" stroke-width="3" stroke-miterlimit="10" stroke-linecap="round"/>
<path d="M50.5999 65.625V92.1875C50.5928 92.805 50.7093 93.4178 50.9423 93.9897C51.1754 94.5616 51.5204 95.0811 51.9571 95.5178C52.3938 95.9545 52.9133 96.2995 53.4853 96.5326C54.0572 96.7656 54.6699 96.8821 55.2874 96.875C55.9049 96.8821 56.5177 96.7656 57.0896 96.5326C57.6615 96.2995 58.181 95.9545 58.6177 95.5178C59.0544 95.0811 59.3994 94.5616 59.6325 93.9897C59.8656 93.4178 59.982 92.805 59.9749 92.1875V40.625" stroke="black" stroke-width="3" stroke-miterlimit="10" stroke-linecap="round"/>
<path d="M41.2249 34.375V51.5625C41.2323 52.1801 41.116 52.7929 40.8831 53.365C40.6501 53.937 40.3051 54.4567 39.8683 54.8934C39.4316 55.3302 38.9119 55.6752 38.3399 55.9081C37.7679 56.1411 37.155 56.2573 36.5374 56.25C35.9198 56.2573 35.307 56.1411 34.735 55.9081C34.1629 55.6752 33.6433 55.3302 33.2065 54.8934C32.7698 54.4567 32.4248 53.937 32.1918 53.365C31.9588 52.7929 31.8426 52.1801 31.8499 51.5625V34.375C31.8499 31.8886 32.8377 29.504 34.5958 27.7459C36.354 25.9877 38.7385 25 41.2249 25H59.9749C62.4613 25 64.8459 25.9877 66.6041 27.7459C68.3622 29.504 69.3499 31.8886 69.3499 34.375V51.5625C69.3573 52.1801 69.241 52.7929 69.0081 53.365C68.7751 53.937 68.4301 54.4567 67.9933 54.8934C67.5566 55.3302 67.0369 55.6752 66.4649 55.9081C65.8929 56.1411 65.28 56.2573 64.6624 56.25C64.0448 56.2573 63.432 56.1411 62.86 55.9081C62.2879 55.6752 61.7683 55.3302 61.3315 54.8934C60.8948 54.4567 60.5498 53.937 60.3168 53.365C60.0838 52.7929 59.9676 52.1801 59.9749 51.5625V34.375" stroke="black" stroke-width="3" stroke-miterlimit="10" stroke-linecap="round"/>
<path d="M50.5996 18.75C54.9143 18.75 58.4121 15.2522 58.4121 10.9375C58.4121 6.62278 54.9143 3.125 50.5996 3.125C46.2849 3.125 42.7871 6.62278 42.7871 10.9375C42.7871 15.2522 46.2849 18.75 50.5996 18.75Z" stroke="black" stroke-width="3" stroke-miterlimit="10" stroke-linecap="round"/>
</svg>
