<svg width="28" height="28" viewBox="0 0 28 28" fill="none" xmlns="http://www.w3.org/2000/svg">
<path d="M3.5 5.83331H8.16667M24.5 5.83331H12.8333M3.5 14H17.5M24.5 14H22.1667M3.5 22.1666H5.83333M24.5 22.1666H10.5" stroke="#060F2F" stroke-width="2" stroke-linecap="round" stroke-linejoin="round"/>
<path d="M10.5003 8.16667C11.789 8.16667 12.8337 7.122 12.8337 5.83333C12.8337 4.54467 11.789 3.5 10.5003 3.5C9.21166 3.5 8.16699 4.54467 8.16699 5.83333C8.16699 7.122 9.21166 8.16667 10.5003 8.16667Z" stroke="#060F2F" stroke-width="2" stroke-linecap="round" stroke-linejoin="round"/>
<path d="M19.8333 16.3334C21.122 16.3334 22.1667 15.2887 22.1667 14C22.1667 12.7114 21.122 11.6667 19.8333 11.6667C18.5447 11.6667 17.5 12.7114 17.5 14C17.5 15.2887 18.5447 16.3334 19.8333 16.3334Z" stroke="#060F2F" stroke-width="2" stroke-linecap="round" stroke-linejoin="round"/>
<path d="M8.16634 24.5C9.45501 24.5 10.4997 23.4553 10.4997 22.1666C10.4997 20.878 9.45501 19.8333 8.16634 19.8333C6.87768 19.8333 5.83301 20.878 5.83301 22.1666C5.83301 23.4553 6.87768 24.5 8.16634 24.5Z" stroke="#060F2F" stroke-width="2" stroke-linecap="round" stroke-linejoin="round"/>
</svg>
