<svg width="40" height="40" viewBox="0 0 40 40" fill="none" xmlns="http://www.w3.org/2000/svg">
<path d="M28.3333 19.9987C32.9357 19.9987 36.6667 16.2677 36.6667 11.6654C36.6667 7.063 32.9357 3.33203 28.3333 3.33203C23.731 3.33203 20 7.063 20 11.6654C20 12.9984 20.313 14.2584 20.8695 15.3758C21.0175 15.6727 21.0667 16.0121 20.981 16.3325L20.4847 18.1875C20.2692 18.9929 21.0058 19.7295 21.8112 19.514L23.6662 19.0177C23.9867 18.932 24.326 18.9812 24.623 19.1292C25.7403 19.6857 27.0003 19.9987 28.3333 19.9987Z" fill="white"/>
<path d="M13.3966 12.1936L14.4783 14.1318C15.4545 15.881 15.0626 18.1755 13.5252 19.713C13.5252 19.713 11.6605 21.578 15.0415 24.9592C18.4215 28.3392 20.2877 26.4755 20.2877 26.4755C21.8252 24.938 24.1197 24.5462 25.8688 25.5223L27.807 26.604C30.4483 28.078 30.7602 31.782 28.4387 34.1037C27.0437 35.4987 25.3347 36.5842 23.4455 36.6557C20.2653 36.7763 14.8645 35.9715 9.44682 30.5538C4.0292 25.1362 3.22434 19.7353 3.3449 16.5552C3.41652 14.666 4.50199 12.9571 5.897 11.5621C8.21859 9.24047 11.9226 9.5524 13.3966 12.1936Z" fill="white"/>
</svg>
