<svg width="40" height="40" viewBox="0 0 40 40" fill="none" xmlns="http://www.w3.org/2000/svg">
<path fill-rule="evenodd" clip-rule="evenodd" d="M21.8118 35.6449L22.7153 34.1184C23.416 32.9344 23.7665 32.3424 24.3293 32.015C24.8922 31.6877 25.6007 31.6755 27.018 31.6512C29.1103 31.615 30.4225 31.4869 31.523 31.031C33.565 30.1852 35.1872 28.563 36.033 26.521C36.6673 24.9897 36.6673 23.0482 36.6673 19.1654V17.4987C36.6673 12.043 36.6673 9.31511 35.4393 7.31121C34.7522 6.18991 33.8095 5.24716 32.6881 4.56003C30.6841 3.33203 27.9563 3.33203 22.5007 3.33203H17.5007C12.0449 3.33203 9.31707 3.33203 7.31317 4.56003C6.19187 5.24716 5.24912 6.18991 4.56198 7.31121C3.33398 9.31511 3.33398 12.043 3.33398 17.4987V19.1654C3.33398 23.0482 3.33398 24.9897 3.96832 26.521C4.8141 28.563 6.43638 30.1852 8.47828 31.031C9.5788 31.4869 10.891 31.615 12.9833 31.6512C14.4005 31.6755 15.1091 31.6877 15.672 32.015C16.2348 32.3425 16.5852 32.9344 17.286 34.1184L18.1895 35.6449C18.9948 37.0054 21.0065 37.0054 21.8118 35.6449ZM12.5007 16.19C12.5007 19.1109 16.1062 22.216 18.3175 23.8457C19.0743 24.4035 19.4528 24.6825 20.0007 24.6825C20.5485 24.6825 20.927 24.4037 21.6838 23.8457C23.8952 22.216 27.5007 19.111 27.5007 16.1899C27.5007 11.728 23.3755 10.0621 20.0007 13.5089C16.6258 10.0621 12.5007 11.728 12.5007 16.19Z" fill="white"/>
</svg>
