<svg width="52" height="52" viewBox="0 0 52 52" fill="none" xmlns="http://www.w3.org/2000/svg">
<g clip-path="url(#clip0_612_8575)">
<path d="M44.2 0H7.8C3.49218 0 0 3.49218 0 7.8V44.2C0 48.5078 3.49218 52 7.8 52H44.2C48.5078 52 52 48.5078 52 44.2V7.8C52 3.49218 48.5078 0 44.2 0Z" fill="#37AEE2"/>
<path d="M20.2109 41.0312C19.0938 41.0312 19.1953 40.625 18.8906 39.6094L15.6406 28.9453L40.5234 14.3203" fill="#C8DAEA"/>
<path d="M20.2109 41.0312C20.9219 41.0312 21.3281 40.625 21.8359 40.2188L26.4062 35.8516L20.7188 32.3984" fill="#A9C9DD"/>
<path d="M20.7189 32.4L34.4298 42.4547C35.8517 43.3687 37.0704 42.8609 37.4767 41.0328L43.0626 14.8297C43.5704 12.5953 42.1486 11.5797 40.6251 12.2906L8.02355 24.8844C5.89074 25.6969 5.89074 27.0172 7.6173 27.525L16.047 30.1656L35.3439 17.8765C36.2579 17.3687 37.0704 17.5719 36.4611 18.2828" fill="#F6FBFE"/>
</g>
<defs>
<clipPath id="clip0_612_8575">
<rect width="52" height="52" fill="white"/>
</clipPath>
</defs>
</svg>
