<svg width="52" height="52" viewBox="0 0 52 52" fill="none" xmlns="http://www.w3.org/2000/svg">
<path d="M27.625 1.5C40.2841 1.5 50.5 11.7159 50.5 24.375C50.5 37.0341 40.2841 47.25 27.625 47.25C24.5816 47.25 21.7018 46.6431 18.9717 45.4297L18.3594 45.1572L17.748 45.4316L6.58203 50.4482C6.52173 50.3869 6.49825 50.334 6.4873 50.293C6.47642 50.2521 6.47175 50.1921 6.49023 50.1074L9.875 39.793L10.1299 39.0176L9.61719 38.3828C6.42802 34.4343 4.75 29.5696 4.75 24.375C4.75 11.7159 14.9659 1.5 27.625 1.5Z" fill="#25D366" stroke="white" stroke-width="3"/>
<path d="M41.7625 33.3125C41.1125 35.2625 38.675 36.8875 36.5625 37.2125C36.075 37.375 35.5875 37.375 34.9375 37.375C33.6375 37.375 31.6875 37.05 28.275 35.5875C24.375 33.9625 20.475 30.55 17.3875 26.1625V26C16.4125 24.5375 14.625 21.775 14.625 18.85C14.625 15.275 16.4125 13.4875 17.0625 12.675C17.875 11.8625 19.0125 11.375 20.3125 11.375C20.6375 11.375 20.8 11.375 21.125 11.375C22.2625 11.375 23.075 11.7 23.8875 13.325L24.5375 14.625C25.025 15.925 25.675 17.3875 25.8375 17.55C26.325 18.525 26.325 19.3375 25.8375 20.15C25.675 20.6375 25.35 20.9625 25.025 21.2875C24.8625 21.6125 24.7 21.775 24.5375 21.775C24.375 21.9375 24.375 21.9375 24.2125 22.1C24.7 22.9125 25.675 24.375 26.975 25.5125C28.925 27.3 30.3875 27.7875 31.2 28.1125C31.525 27.7875 31.85 27.1375 32.3375 26.65L32.5 26.325C33.3125 25.1875 34.6125 24.8625 35.9125 25.35C36.5625 25.675 40.1375 27.3 40.1375 27.3L40.4625 27.4625C40.95 27.7875 41.6 27.95 41.925 28.6C42.575 30.0625 42.0875 32.175 41.7625 33.3125Z" fill="white"/>
</svg>
